<svg xmlns="http://www.w3.org/2000/svg" xmlns:xlink="http://www.w3.org/1999/xlink" width="1024" zoomAndPan="magnify" viewBox="0 0 768 767.999994" height="1024" preserveAspectRatio="xMidYMid meet" version="1.0"><defs><g/><clipPath id="881898484e"><path d="M 6 36 L 749 36 L 749 738.78125 L 6 738.78125 Z M 6 36 " clip-rule="nonzero"/></clipPath></defs><g clip-path="url(#881898484e)"><path fill="#92695d" d="M 313.144531 701.070312 C 264.378906 713.023438 223.464844 713.023438 194.726562 700.957031 C 193.929688 700.617188 192.964844 700.21875 193.191406 698.398438 C 193.304688 697.371094 193.929688 695.496094 196.945312 695.039062 C 234.332031 689.632812 261.703125 653.210938 258.0625 613.828125 C 253.335938 563.578125 272.402344 533.132812 314.679688 523.34375 C 320.199219 522.035156 325.664062 521.410156 331.125 521.410156 C 335.507812 521.410156 339.832031 522.035156 344.042969 522.890625 C 344.726562 523.117188 345.40625 523.058594 346.089844 523.171875 C 350.757812 524.253906 355.195312 525.847656 359.40625 527.953125 C 393.148438 544.96875 395.371094 579.34375 395.484375 581.621094 C 398.5 611.042969 392.46875 636.820312 377.617188 658.332031 C 363.21875 679.160156 340.285156 694.355469 313.144531 701.070312 Z M 690.871094 234.1875 C 694.683594 231.742188 697.640625 233.847656 698.78125 234.925781 C 700.316406 236.351562 701.851562 238.796875 700.03125 242.210938 C 669.417969 299.578125 602.953125 403.207031 479.984375 512.304688 C 467.464844 484.019531 441.347656 463.417969 423.652344 452.09375 C 483.570312 393.023438 580.191406 305.382812 690.871094 234.1875 Z M 402.539062 473.320312 C 418.074219 482.539062 449.199219 504.050781 456.425781 532.734375 C 445.160156 542.179688 433.382812 551.742188 421.261719 561.246094 C 416.308594 544.003906 404.132812 518.675781 374.144531 502.855469 C 381.257812 495.289062 390.816406 485.214844 402.539062 473.320312 Z M 684.210938 445.378906 C 681.992188 442.988281 679.945312 440.65625 677.953125 438.378906 C 672.660156 432.289062 663.441406 431.664062 657.410156 436.957031 C 651.320312 442.191406 650.695312 451.410156 655.929688 457.5 C 658.152344 460.003906 660.371094 462.507812 663.785156 466.09375 C 664.46875 466.664062 733.71875 529.660156 716.648438 605.066406 C 708.738281 640.007812 681.992188 669.203125 645.175781 683.203125 C 617.636719 693.730469 570.234375 705.339844 500.699219 701.242188 C 466.726562 699.25 432.1875 691.910156 397.703125 679.957031 C 399.011719 678.25 400.375 676.65625 401.570312 674.894531 C 417.734375 651.5625 425.640625 624.527344 425.359375 594.878906 C 599.996094 461.9375 688.421875 325.753906 725.695312 255.925781 C 733.378906 241.527344 730.476562 224.511719 718.527344 213.472656 C 706.40625 202.320312 688.992188 200.78125 675.109375 209.714844 C 654.738281 222.804688 634.878906 236.464844 615.585938 250.351562 C 602.214844 208.804688 565.910156 123.953125 498.59375 85.484375 C 435.65625 49.515625 380.003906 40.808594 338.578125 37.28125 C 253.394531 29.769531 168.265625 58.222656 104.875 114.734375 C 43.761719 169.253906 8.824219 243.578125 6.488281 324.105469 C 1.425781 499.839844 137.425781 588.847656 179.191406 612.007812 C 181.410156 613.203125 183.859375 613.828125 186.191406 613.828125 C 191.371094 613.828125 196.320312 611.097656 198.996094 606.261719 C 202.863281 599.261719 200.304688 590.382812 193.304688 586.511719 C 155.121094 565.398438 31.015625 484.191406 35.625 324.957031 C 37.730469 252.511719 69.199219 185.585938 124.28125 136.472656 C 181.695312 85.257812 258.800781 59.648438 336.074219 66.304688 C 374.542969 69.605469 426.152344 77.628906 484.140625 110.75 C 548.328125 147.457031 583.152344 241.015625 591.003906 268.503906 C 506.503906 332.070312 435.488281 398.882812 390.363281 444.183594 C 390.191406 444.355469 390.019531 444.523438 389.851562 444.695312 C 367.257812 467.402344 351.269531 484.589844 343.417969 493.238281 C 331.863281 491.757812 319.914062 492.214844 308.078125 494.945312 C 281.503906 501.148438 220.503906 525.335938 229.039062 616.503906 C 231.316406 640.691406 215.042969 663 192.449219 666.242188 C 177.542969 668.40625 166.21875 679.789062 164.285156 694.699219 C 162.460938 708.925781 170.144531 722.242188 183.460938 727.820312 C 201.554688 735.445312 222.667969 739.257812 246.453125 739.257812 C 268.644531 739.257812 293.285156 735.957031 320.085938 729.300781 C 340.742188 724.289062 359.40625 715.128906 375.113281 702.777344 C 416.421875 718.484375 458.019531 727.875 498.933594 730.324219 C 509.40625 730.949219 519.648438 731.289062 529.71875 731.289062 C 577.0625 731.289062 619.285156 724.289062 655.589844 710.460938 C 701.511719 692.992188 734.96875 655.941406 745.042969 611.496094 C 765.871094 519.589844 686.546875 447.371094 684.210938 445.378906 " fill-opacity="1" fill-rule="nonzero"/></g><path fill="#92695d" d="M 193.816406 359.21875 C 222.835938 359.21875 246.507812 382.835938 246.507812 411.859375 C 246.507812 440.9375 222.835938 464.558594 193.816406 464.558594 C 164.796875 464.558594 141.125 440.9375 141.125 411.859375 C 141.125 382.835938 164.796875 359.21875 193.816406 359.21875 Z M 111.988281 411.859375 C 111.988281 456.988281 148.691406 493.695312 193.816406 493.695312 C 238.941406 493.695312 275.644531 456.988281 275.644531 411.859375 C 275.644531 366.785156 238.941406 330.078125 193.816406 330.078125 C 148.691406 330.078125 111.988281 366.785156 111.988281 411.859375 " fill-opacity="1" fill-rule="nonzero"/><path fill="#92695d" d="M 185.335938 218.480469 C 185.335938 195.832031 203.773438 177.335938 226.480469 177.335938 C 249.125 177.335938 267.621094 195.832031 267.621094 218.480469 C 267.621094 241.1875 249.125 259.625 226.480469 259.625 C 203.773438 259.625 185.335938 241.1875 185.335938 218.480469 Z M 296.753906 218.480469 C 296.753906 179.726562 265.230469 148.199219 226.480469 148.199219 C 187.726562 148.199219 156.203125 179.726562 156.203125 218.480469 C 156.203125 257.234375 187.726562 288.765625 226.480469 288.765625 C 265.230469 288.765625 296.753906 257.234375 296.753906 218.480469 " fill-opacity="1" fill-rule="nonzero"/><path fill="#92695d" d="M 359.632812 161.570312 C 359.632812 147.742188 370.902344 136.53125 384.726562 136.53125 C 398.554688 136.53125 409.765625 147.742188 409.765625 161.570312 C 409.765625 175.34375 398.554688 186.613281 384.726562 186.613281 C 370.902344 186.613281 359.632812 175.34375 359.632812 161.570312 Z M 438.902344 161.570312 C 438.902344 131.695312 414.601562 107.394531 384.726562 107.394531 C 354.855469 107.394531 330.5 131.695312 330.5 161.570312 C 330.5 191.449219 354.855469 215.75 384.726562 215.75 C 414.601562 215.75 438.902344 191.449219 438.902344 161.570312 " fill-opacity="1" fill-rule="nonzero"/><path fill="#92695d" d="M 602.839844 615.765625 C 602.839844 631.074219 590.378906 643.480469 575.128906 643.480469 C 559.878906 643.480469 547.414062 631.074219 547.414062 615.765625 C 547.414062 600.511719 559.878906 588.105469 575.128906 588.105469 C 590.378906 588.105469 602.839844 600.511719 602.839844 615.765625 Z M 518.28125 615.765625 C 518.28125 647.121094 543.773438 672.617188 575.128906 672.617188 C 606.480469 672.617188 631.976562 647.121094 631.976562 615.765625 C 631.976562 584.464844 606.480469 558.96875 575.128906 558.96875 C 543.773438 558.96875 518.28125 584.464844 518.28125 615.765625 " fill-opacity="1" fill-rule="nonzero"/><g fill="#000000" fill-opacity="1"><g transform="translate(740.773454, 764.899991)"><g/></g></g><g fill="#000000" fill-opacity="1"><g transform="translate(743.248438, 764.899991)"><g/></g></g><g fill="#000000" fill-opacity="1"><g transform="translate(745.723421, 764.899991)"><g/></g></g><g fill="#000000" fill-opacity="1"><g transform="translate(748.198404, 764.899991)"><g/></g></g><g fill="#000000" fill-opacity="1"><g transform="translate(750.673387, 764.899991)"><g/></g></g><g fill="#000000" fill-opacity="1"><g transform="translate(753.148371, 764.899991)"><g/></g></g><g fill="#000000" fill-opacity="1"><g transform="translate(755.623354, 764.899991)"><g/></g></g><g fill="#000000" fill-opacity="1"><g transform="translate(758.098337, 764.899991)"><g/></g></g><g fill="#000000" fill-opacity="1"><g transform="translate(760.573321, 764.899991)"><g/></g></g><g fill="#000000" fill-opacity="1"><g transform="translate(763.048304, 764.899991)"><g/></g></g><g fill="#000000" fill-opacity="1"><g transform="translate(765.523287, 764.899991)"><g/></g></g></svg>