<svg xmlns="http://www.w3.org/2000/svg" xmlns:xlink="http://www.w3.org/1999/xlink" width="1024" zoomAndPan="magnify" viewBox="0 0 768 767.999994" height="1024" preserveAspectRatio="xMidYMid meet" version="1.0"><defs><g/><clipPath id="26c5c352a5"><path d="M 20.324219 393 L 362 393 L 362 752 L 20.324219 752 Z M 20.324219 393 " clip-rule="nonzero"/></clipPath></defs><path fill="#92695d" d="M 710.40625 127.542969 C 661.085938 176.304688 611.761719 225.09375 562.441406 273.917969 C 540.4375 295.769531 518.761719 318 496.949219 340.042969 L 494.007812 338.90625 C 476.128906 311.695312 454.976562 288.089844 424.863281 273.777344 C 424.335938 273.578125 423.84375 273.324219 423.375 273.015625 C 422.910156 272.703125 422.484375 272.347656 422.097656 271.941406 C 421.710938 271.535156 421.375 271.089844 421.089844 270.609375 C 420.804688 270.128906 420.578125 269.621094 420.40625 269.085938 C 420.234375 268.554688 420.125 268.007812 420.078125 267.449219 C 420.03125 266.894531 420.046875 266.335938 420.125 265.78125 C 420.203125 265.230469 420.339844 264.691406 420.539062 264.167969 C 420.738281 263.644531 420.992188 263.148438 421.304688 262.683594 C 491.082031 191.015625 562.21875 120.75 634.71875 51.894531 C 653.214844 47.390625 662.320312 62.984375 673.511719 71.753906 C 691.53125 85.832031 710.550781 100.808594 710.40625 127.542969 Z M 710.40625 127.542969 " fill-opacity="1" fill-rule="nonzero"/><path fill="#92695d" d="M 363.398438 405.644531 C 349.597656 379.335938 361.074219 358.90625 378.148438 339.285156 C 380.113281 337.136719 381.875 334.835938 383.4375 332.382812 C 384.996094 329.929688 386.335938 327.359375 387.445312 324.671875 C 388.558594 321.984375 389.429688 319.21875 390.058594 316.378906 C 390.6875 313.539062 391.0625 310.667969 391.191406 307.761719 C 392.042969 292.121094 401.007812 279.320312 413.289062 268.988281 C 450.089844 281.171875 474.183594 308.425781 495.808594 338.574219 L 497.089844 340.042969 C 480.113281 352.460938 467.972656 368.484375 441.933594 370.898438 C 421.019531 372.796875 401.8125 393.746094 381.847656 406.261719 C 375.398438 411.949219 369.328125 411.046875 363.398438 405.644531 Z M 363.398438 405.644531 " fill-opacity="1" fill-rule="nonzero"/><path fill="#92695d" d="M 644.4375 43.027344 C 666.964844 16.53125 682.902344 15.867188 707.609375 40.613281 C 712.21875 45.347656 716.550781 50.324219 720.605469 55.542969 C 748.015625 89.671875 747.777344 92.5625 715.054688 123.136719 C 711.386719 116.226562 707.273438 109.59375 702.71875 103.234375 C 698.164062 96.871094 693.207031 90.839844 687.847656 85.140625 C 682.488281 79.441406 676.777344 74.121094 670.707031 69.183594 C 664.640625 64.242188 658.269531 59.726562 651.601562 55.636719 C 650.460938 55.039062 649.429688 54.292969 648.507812 53.402344 C 647.582031 52.507812 646.804688 51.5 646.167969 50.382812 C 645.535156 49.265625 645.070312 48.082031 644.773438 46.832031 C 644.480469 45.578125 644.371094 44.3125 644.4375 43.027344 Z M 644.4375 43.027344 " fill-opacity="1" fill-rule="nonzero"/><path fill="#fffbf6" d="M 644.4375 43.027344 C 666.871094 58.433594 689.824219 73.222656 705.046875 96.828125 C 710.265625 104.933594 715.433594 112.945312 715.054688 123.136719 L 710.3125 127.542969 C 693.289062 94.125 666.351562 70.664062 634.433594 51.703125 Z M 644.4375 43.027344 " fill-opacity="1" fill-rule="nonzero"/><path fill="#fffbf6" d="M 495.523438 338.574219 C 494.054688 338.574219 491.921875 338.574219 491.257812 338.003906 C 468.824219 310.890625 440.417969 290.601562 413.003906 268.988281 L 421.164062 262.683594 C 441.699219 277.613281 465.695312 288.234375 480.871094 309.800781 C 487.226562 318.617188 495.242188 326.722656 495.523438 338.574219 Z M 495.523438 338.574219 " fill-opacity="1" fill-rule="nonzero"/><g clip-path="url(#26c5c352a5)"><path fill="#92695d" d="M 343.433594 394.171875 C 287.328125 402.609375 223.96875 415.410156 192.003906 467.550781 C 158.808594 521.539062 219.796875 543.390625 262.476562 554.816406 C 287.804688 561.734375 331.339844 576.570312 320.050781 611.507812 C 309.238281 644.449219 262.242188 650.707031 233.3125 656.917969 C 165.445312 671.375 96.347656 678.671875 30.757812 701.898438 C 30.019531 702.117188 29.304688 702.390625 28.609375 702.722656 C 27.917969 703.054688 27.253906 703.4375 26.617188 703.875 C 25.984375 704.3125 25.390625 704.796875 24.832031 705.328125 C 24.277344 705.859375 23.765625 706.429688 23.296875 707.042969 C 22.832031 707.652344 22.417969 708.296875 22.054688 708.976562 C 21.691406 709.652344 21.382812 710.355469 21.128906 711.082031 C 20.875 711.808594 20.683594 712.550781 20.546875 713.308594 C 20.414062 714.066406 20.339844 714.828125 20.324219 715.597656 C 20.941406 735.128906 36.546875 740.769531 53.855469 743.28125 C 84.964844 748.019531 116.550781 749.867188 147.996094 751.292969 C 166.300781 752.097656 166.253906 723.65625 147.996094 722.851562 C 140.027344 722.472656 48.828125 717.257812 48.78125 715.597656 L 38.300781 729.296875 C 102.511719 706.59375 170.09375 699.101562 236.441406 685.214844 C 282.347656 675.734375 354.101562 658.289062 350.261719 597.238281 C 347.132812 545.097656 287.421875 533.863281 248.15625 521.398438 C 232.457031 516.65625 202.484375 506.230469 214.390625 484.851562 C 218.71875 477.554688 223.90625 470.925781 229.949219 464.964844 C 235.992188 459.007812 242.695312 453.910156 250.054688 449.679688 C 280.074219 431.289062 316.449219 426.5 350.785156 421.238281 C 368.851562 418.539062 361.167969 391.140625 343.242188 393.84375 Z M 343.433594 394.171875 " fill-opacity="1" fill-rule="nonzero"/></g><path fill="#fffbf6" d="M 645.175781 109.402344 C 645.46875 109.695312 645.730469 110.015625 645.960938 110.371094 C 646.191406 110.722656 646.390625 111.105469 646.558594 111.515625 C 646.726562 111.929688 646.863281 112.371094 646.96875 112.84375 C 647.078125 113.316406 647.152344 113.816406 647.195312 114.34375 C 647.238281 114.875 647.25 115.429688 647.230469 116.015625 C 647.210938 116.601562 647.160156 117.214844 647.078125 117.855469 C 646.996094 118.496094 646.878906 119.164062 646.734375 119.859375 C 646.589844 120.554688 646.414062 121.273438 646.207031 122.019531 C 646 122.765625 645.761719 123.539062 645.492188 124.335938 C 645.222656 125.132812 644.925781 125.953125 644.59375 126.796875 C 644.265625 127.640625 643.902344 128.507812 643.515625 129.398438 C 643.125 130.289062 642.703125 131.203125 642.253906 132.136719 C 641.804688 133.074219 641.324219 134.027344 640.816406 135.003906 C 640.308594 135.980469 639.773438 136.976562 639.207031 137.992188 C 638.644531 139.007812 638.050781 140.042969 637.429688 141.097656 C 636.808594 142.148438 636.160156 143.21875 635.484375 144.304688 C 634.8125 145.394531 634.109375 146.496094 633.382812 147.617188 C 632.65625 148.734375 631.902344 149.867188 631.125 151.015625 C 630.347656 152.164062 629.542969 153.324219 628.714844 154.5 C 627.890625 155.675781 627.039062 156.859375 626.164062 158.058594 C 625.289062 159.257812 624.394531 160.464844 623.476562 161.683594 C 622.554688 162.902344 621.617188 164.128906 620.652344 165.363281 C 619.691406 166.601562 618.710938 167.84375 617.707031 169.097656 C 616.707031 170.347656 615.6875 171.601562 614.644531 172.867188 C 613.605469 174.128906 612.550781 175.394531 611.472656 176.667969 C 610.398438 177.9375 609.308594 179.210938 608.199219 180.488281 C 607.089844 181.765625 605.96875 183.042969 604.832031 184.324219 C 603.691406 185.601562 602.539062 186.882812 601.375 188.160156 C 600.210938 189.4375 599.03125 190.714844 597.84375 191.992188 C 596.652344 193.265625 595.449219 194.539062 594.238281 195.804688 C 593.027344 197.074219 591.804688 198.335938 590.574219 199.597656 C 589.34375 200.855469 588.105469 202.105469 586.859375 203.351562 C 585.613281 204.597656 584.363281 205.835938 583.101562 207.066406 C 581.84375 208.296875 580.578125 209.515625 579.308594 210.726562 C 578.039062 211.9375 576.769531 213.140625 575.492188 214.328125 C 574.21875 215.515625 572.941406 216.695312 571.660156 217.859375 C 570.382812 219.023438 569.101562 220.175781 567.820312 221.3125 C 566.542969 222.449219 565.261719 223.574219 563.984375 224.679688 C 562.707031 225.789062 561.433594 226.878906 560.160156 227.953125 C 558.890625 229.027344 557.621094 230.085938 556.359375 231.125 C 555.09375 232.164062 553.835938 233.183594 552.585938 234.183594 C 551.335938 235.1875 550.089844 236.167969 548.855469 237.128906 C 547.617188 238.089844 546.390625 239.03125 545.167969 239.949219 C 543.949219 240.867188 542.742188 241.761719 541.542969 242.636719 C 540.34375 243.507812 539.15625 244.359375 537.984375 245.1875 C 536.808594 246.011719 535.644531 246.816406 534.496094 247.59375 C 533.347656 248.371094 532.214844 249.125 531.09375 249.851562 C 529.976562 250.578125 528.871094 251.277344 527.785156 251.953125 C 526.695312 252.628906 525.625 253.273438 524.574219 253.894531 C 523.519531 254.515625 522.484375 255.109375 521.46875 255.671875 C 520.453125 256.238281 519.453125 256.773438 518.476562 257.28125 C 517.5 257.789062 516.542969 258.269531 515.609375 258.71875 C 514.675781 259.167969 513.761719 259.585938 512.871094 259.976562 C 511.980469 260.367188 511.109375 260.726562 510.265625 261.058594 C 509.421875 261.386719 508.601562 261.6875 507.804688 261.953125 C 507.007812 262.222656 506.234375 262.460938 505.488281 262.667969 C 504.742188 262.875 504.019531 263.050781 503.324219 263.195312 C 502.628906 263.339844 501.960938 263.457031 501.320312 263.539062 C 500.679688 263.621094 500.066406 263.671875 499.480469 263.691406 C 498.894531 263.710938 498.335938 263.699219 497.808594 263.65625 C 497.277344 263.613281 496.777344 263.539062 496.304688 263.429688 C 495.832031 263.324219 495.390625 263.1875 494.980469 263.019531 C 494.566406 262.851562 494.183594 262.652344 493.832031 262.421875 C 493.476562 262.191406 493.15625 261.929688 492.863281 261.640625 C 492.570312 261.347656 492.308594 261.023438 492.078125 260.671875 C 491.847656 260.320312 491.648438 259.9375 491.480469 259.523438 C 491.3125 259.113281 491.175781 258.671875 491.070312 258.199219 C 490.964844 257.726562 490.890625 257.226562 490.847656 256.699219 C 490.804688 256.167969 490.789062 255.609375 490.8125 255.023438 C 490.832031 254.441406 490.882812 253.828125 490.964844 253.183594 C 491.046875 252.542969 491.160156 251.875 491.304688 251.183594 C 491.449219 250.488281 491.625 249.765625 491.832031 249.019531 C 492.039062 248.273438 492.277344 247.503906 492.546875 246.707031 C 492.816406 245.910156 493.117188 245.089844 493.445312 244.246094 C 493.777344 243.402344 494.136719 242.535156 494.527344 241.640625 C 494.917969 240.75 495.335938 239.839844 495.785156 238.90625 C 496.234375 237.96875 496.714844 237.015625 497.222656 236.039062 C 497.730469 235.0625 498.265625 234.066406 498.832031 233.050781 C 499.398438 232.03125 499.988281 231 500.609375 229.945312 C 501.230469 228.894531 501.878906 227.824219 502.554688 226.734375 C 503.230469 225.648438 503.929688 224.546875 504.65625 223.425781 C 505.386719 222.308594 506.136719 221.175781 506.914062 220.027344 C 507.695312 218.878906 508.496094 217.714844 509.324219 216.542969 C 510.152344 215.367188 511 214.183594 511.875 212.984375 C 512.75 211.785156 513.644531 210.578125 514.566406 209.359375 C 515.484375 208.140625 516.425781 206.914062 517.386719 205.675781 C 518.347656 204.441406 519.328125 203.199219 520.332031 201.945312 C 521.332031 200.695312 522.355469 199.4375 523.394531 198.175781 C 524.433594 196.914062 525.492188 195.648438 526.566406 194.375 C 527.640625 193.105469 528.734375 191.832031 529.839844 190.554688 C 530.949219 189.277344 532.070312 188 533.210938 186.71875 C 534.347656 185.441406 535.5 184.160156 536.664062 182.882812 C 537.832031 181.605469 539.007812 180.328125 540.199219 179.050781 C 541.386719 177.777344 542.589844 176.503906 543.800781 175.238281 C 545.011719 173.96875 546.234375 172.703125 547.464844 171.445312 C 548.695312 170.1875 549.933594 168.933594 551.179688 167.691406 C 552.425781 166.445312 553.679688 165.207031 554.9375 163.976562 C 556.199219 162.746094 557.460938 161.527344 558.730469 160.316406 C 560 159.105469 561.273438 157.902344 562.546875 156.714844 C 563.824219 155.523438 565.101562 154.347656 566.378906 153.183594 C 567.660156 152.019531 568.9375 150.867188 570.21875 149.730469 C 571.5 148.589844 572.777344 147.46875 574.054688 146.363281 C 575.332031 145.253906 576.605469 144.164062 577.878906 143.089844 C 579.152344 142.015625 580.417969 140.957031 581.683594 139.917969 C 582.945312 138.878906 584.203125 137.859375 585.453125 136.855469 C 586.707031 135.855469 587.949219 134.875 589.1875 133.914062 C 590.421875 132.953125 591.652344 132.011719 592.871094 131.09375 C 594.089844 130.175781 595.296875 129.28125 596.496094 128.40625 C 597.695312 127.53125 598.882812 126.683594 600.058594 125.855469 C 601.230469 125.027344 602.394531 124.226562 603.542969 123.449219 C 604.691406 122.671875 605.824219 121.917969 606.945312 121.191406 C 608.066406 120.464844 609.167969 119.761719 610.257812 119.089844 C 611.34375 118.414062 612.414062 117.765625 613.46875 117.148438 C 614.519531 116.527344 615.554688 115.933594 616.574219 115.367188 C 617.589844 114.804688 618.585938 114.269531 619.5625 113.761719 C 620.539062 113.253906 621.496094 112.773438 622.429688 112.324219 C 623.367188 111.875 624.277344 111.457031 625.171875 111.066406 C 626.0625 110.675781 626.929688 110.316406 627.773438 109.984375 C 628.621094 109.65625 629.441406 109.355469 630.238281 109.085938 C 631.035156 108.820312 631.804688 108.582031 632.554688 108.375 C 633.300781 108.167969 634.019531 107.992188 634.714844 107.84375 C 635.410156 107.699219 636.078125 107.585938 636.71875 107.503906 C 637.359375 107.421875 637.972656 107.371094 638.558594 107.351562 C 639.144531 107.332031 639.703125 107.34375 640.234375 107.386719 C 640.761719 107.429688 641.261719 107.503906 641.734375 107.609375 C 642.207031 107.714844 642.648438 107.851562 643.0625 108.023438 C 643.472656 108.191406 643.855469 108.390625 644.210938 108.621094 C 644.5625 108.851562 644.886719 109.109375 645.175781 109.402344 Z M 645.175781 109.402344 " fill-opacity="1" fill-rule="nonzero"/><g fill="#000000" fill-opacity="1"><g transform="translate(740.773454, 764.900063)"><g/></g></g><g fill="#000000" fill-opacity="1"><g transform="translate(743.248438, 764.900063)"><g/></g></g><g fill="#000000" fill-opacity="1"><g transform="translate(745.723421, 764.900063)"><g/></g></g><g fill="#000000" fill-opacity="1"><g transform="translate(748.198404, 764.900063)"><g/></g></g><g fill="#000000" fill-opacity="1"><g transform="translate(750.673387, 764.900063)"><g/></g></g><g fill="#000000" fill-opacity="1"><g transform="translate(753.148371, 764.900063)"><g/></g></g><g fill="#000000" fill-opacity="1"><g transform="translate(755.623354, 764.900063)"><g/></g></g><g fill="#000000" fill-opacity="1"><g transform="translate(758.098337, 764.900063)"><g/></g></g><g fill="#000000" fill-opacity="1"><g transform="translate(760.573321, 764.900063)"><g/></g></g><g fill="#000000" fill-opacity="1"><g transform="translate(763.048304, 764.900063)"><g/></g></g><g fill="#000000" fill-opacity="1"><g transform="translate(765.523287, 764.900063)"><g/></g></g></svg>