<svg xmlns="http://www.w3.org/2000/svg" xmlns:xlink="http://www.w3.org/1999/xlink" width="1024" zoomAndPan="magnify" viewBox="0 0 768 767.999994" height="1024" preserveAspectRatio="xMidYMid meet" version="1.0"><defs><g/><clipPath id="b3ad5011a6"><path d="M 630 115 L 719.90625 115 L 719.90625 676 L 630 676 Z M 630 115 " clip-rule="nonzero"/></clipPath><clipPath id="a631a671d6"><path d="M 47.90625 47.90625 L 608 47.90625 L 608 719.90625 L 47.90625 719.90625 Z M 47.90625 47.90625 " clip-rule="nonzero"/></clipPath></defs><g fill="#000000" fill-opacity="1"><g transform="translate(740.773454, 764.900063)"><g/></g></g><g fill="#000000" fill-opacity="1"><g transform="translate(743.248438, 764.900063)"><g/></g></g><g fill="#000000" fill-opacity="1"><g transform="translate(745.723421, 764.900063)"><g/></g></g><g fill="#000000" fill-opacity="1"><g transform="translate(748.198404, 764.900063)"><g/></g></g><g fill="#000000" fill-opacity="1"><g transform="translate(750.673387, 764.900063)"><g/></g></g><g fill="#000000" fill-opacity="1"><g transform="translate(753.148371, 764.900063)"><g/></g></g><g fill="#000000" fill-opacity="1"><g transform="translate(755.623354, 764.900063)"><g/></g></g><g fill="#000000" fill-opacity="1"><g transform="translate(758.098337, 764.900063)"><g/></g></g><g fill="#000000" fill-opacity="1"><g transform="translate(760.573321, 764.900063)"><g/></g></g><g fill="#000000" fill-opacity="1"><g transform="translate(763.048304, 764.900063)"><g/></g></g><g fill="#000000" fill-opacity="1"><g transform="translate(765.523287, 764.900063)"><g/></g></g><g clip-path="url(#b3ad5011a6)"><path fill="#92695d" d="M 675.109375 632.015625 L 657.695312 585.507812 L 692.519531 585.507812 Z M 652.707031 159.90625 C 652.707031 147.570312 662.769531 137.507812 675.109375 137.507812 C 687.445312 137.507812 697.507812 147.570312 697.507812 159.90625 L 697.507812 182.308594 L 652.707031 182.308594 Z M 652.707031 204.707031 L 697.507812 204.707031 L 697.507812 563.109375 L 652.707031 563.109375 Z M 675.109375 115.109375 C 650.390625 115.109375 630.308594 135.1875 630.308594 159.90625 L 630.308594 574.308594 C 630.308594 574.4375 630.570312 577.0625 631.007812 578.246094 L 664.609375 667.84375 C 666.269531 672.21875 670.425781 675.109375 675.109375 675.109375 C 679.789062 675.109375 683.945312 672.21875 685.609375 667.84375 L 719.207031 578.246094 C 719.644531 577.0625 719.90625 574.4375 719.90625 574.308594 L 719.90625 159.90625 C 719.90625 135.1875 699.828125 115.109375 675.109375 115.109375 " fill-opacity="1" fill-rule="nonzero"/></g><path fill="#92695d" d="M 238.308594 204.707031 L 484.707031 204.707031 L 484.707031 316.707031 L 238.308594 316.707031 Z M 227.109375 339.109375 L 495.90625 339.109375 C 502.078125 339.109375 507.109375 334.078125 507.109375 327.90625 L 507.109375 193.507812 C 507.109375 187.339844 502.078125 182.308594 495.90625 182.308594 L 227.109375 182.308594 C 220.9375 182.308594 215.90625 187.339844 215.90625 193.507812 L 215.90625 327.90625 C 215.90625 334.078125 220.9375 339.109375 227.109375 339.109375 " fill-opacity="1" fill-rule="nonzero"/><path fill="#92695d" d="M 484.707031 652.707031 L 484.707031 675.109375 L 563.109375 675.109375 L 563.109375 607.90625 L 540.707031 607.90625 L 540.707031 652.707031 L 484.707031 652.707031 " fill-opacity="1" fill-rule="nonzero"/><g clip-path="url(#a631a671d6)"><path fill="#92695d" d="M 585.507812 697.507812 L 115.109375 697.507812 L 115.109375 641.507812 L 148.707031 641.507812 C 154.875 641.507812 159.90625 636.476562 159.90625 630.308594 L 159.90625 585.507812 C 159.90625 579.339844 154.875 574.308594 148.707031 574.308594 L 115.109375 574.308594 L 115.109375 529.507812 L 148.707031 529.507812 C 154.875 529.507812 159.90625 524.476562 159.90625 518.308594 L 159.90625 473.507812 C 159.90625 467.339844 154.875 462.308594 148.707031 462.308594 L 115.109375 462.308594 L 115.109375 417.507812 L 148.707031 417.507812 C 154.875 417.507812 159.90625 412.476562 159.90625 406.308594 L 159.90625 361.507812 C 159.90625 355.339844 154.875 350.308594 148.707031 350.308594 L 115.109375 350.308594 L 115.109375 305.507812 L 148.707031 305.507812 C 154.875 305.507812 159.90625 300.476562 159.90625 294.308594 L 159.90625 249.507812 C 159.90625 243.339844 154.875 238.308594 148.707031 238.308594 L 115.109375 238.308594 L 115.109375 193.507812 L 148.707031 193.507812 C 154.875 193.507812 159.90625 188.476562 159.90625 182.308594 L 159.90625 137.507812 C 159.90625 131.339844 154.875 126.308594 148.707031 126.308594 L 115.109375 126.308594 L 115.109375 70.308594 L 585.507812 70.308594 Z M 70.308594 607.90625 C 70.308594 601.738281 75.339844 596.707031 81.507812 596.707031 L 137.507812 596.707031 L 137.507812 619.109375 L 81.507812 619.109375 C 75.339844 619.109375 70.308594 614.078125 70.308594 607.90625 Z M 70.308594 495.90625 C 70.308594 489.738281 75.339844 484.707031 81.507812 484.707031 L 137.507812 484.707031 L 137.507812 507.109375 L 81.507812 507.109375 C 75.339844 507.109375 70.308594 502.078125 70.308594 495.90625 Z M 70.308594 383.90625 C 70.308594 377.738281 75.339844 372.707031 81.507812 372.707031 L 137.507812 372.707031 L 137.507812 395.109375 L 81.507812 395.109375 C 75.339844 395.109375 70.308594 390.078125 70.308594 383.90625 Z M 70.308594 271.90625 C 70.308594 265.738281 75.339844 260.707031 81.507812 260.707031 L 137.507812 260.707031 L 137.507812 283.109375 L 81.507812 283.109375 C 75.339844 283.109375 70.308594 278.078125 70.308594 271.90625 Z M 70.308594 159.90625 C 70.308594 153.738281 75.339844 148.707031 81.507812 148.707031 L 137.507812 148.707031 L 137.507812 171.109375 L 81.507812 171.109375 C 75.339844 171.109375 70.308594 166.078125 70.308594 159.90625 Z M 596.707031 47.90625 L 103.90625 47.90625 C 97.738281 47.90625 92.707031 52.9375 92.707031 59.109375 L 92.707031 126.308594 L 81.507812 126.308594 C 62.957031 126.308594 47.90625 141.359375 47.90625 159.90625 C 47.90625 178.457031 62.957031 193.507812 81.507812 193.507812 L 92.707031 193.507812 L 92.707031 238.308594 L 81.507812 238.308594 C 62.957031 238.308594 47.90625 253.359375 47.90625 271.90625 C 47.90625 290.457031 62.957031 305.507812 81.507812 305.507812 L 92.707031 305.507812 L 92.707031 350.308594 L 81.507812 350.308594 C 62.957031 350.308594 47.90625 365.359375 47.90625 383.90625 C 47.90625 402.457031 62.957031 417.507812 81.507812 417.507812 L 92.707031 417.507812 L 92.707031 462.308594 L 81.507812 462.308594 C 62.957031 462.308594 47.90625 477.359375 47.90625 495.90625 C 47.90625 514.457031 62.957031 529.507812 81.507812 529.507812 L 92.707031 529.507812 L 92.707031 574.308594 L 81.507812 574.308594 C 62.957031 574.308594 47.90625 589.359375 47.90625 607.90625 C 47.90625 626.457031 62.957031 641.507812 81.507812 641.507812 L 92.707031 641.507812 L 92.707031 708.707031 C 92.707031 714.875 97.738281 719.90625 103.90625 719.90625 L 596.707031 719.90625 C 602.875 719.90625 607.90625 714.875 607.90625 708.707031 L 607.90625 59.109375 C 607.90625 52.9375 602.875 47.90625 596.707031 47.90625 " fill-opacity="1" fill-rule="nonzero"/></g></svg>