<svg xmlns="http://www.w3.org/2000/svg" xmlns:xlink="http://www.w3.org/1999/xlink" width="1024" zoomAndPan="magnify" viewBox="0 0 768 767.999994" height="1024" preserveAspectRatio="xMidYMid meet" version="1.0"><defs><g/><clipPath id="37ac674732"><path d="M 39 31.910156 L 730 31.910156 L 730 736.160156 L 39 736.160156 Z M 39 31.910156 " clip-rule="nonzero"/></clipPath></defs><g fill="#000000" fill-opacity="1"><g transform="translate(740.773454, 764.899823)"><g/></g></g><g fill="#000000" fill-opacity="1"><g transform="translate(743.248438, 764.899823)"><g/></g></g><g fill="#000000" fill-opacity="1"><g transform="translate(745.723421, 764.899823)"><g/></g></g><g fill="#000000" fill-opacity="1"><g transform="translate(748.198404, 764.899823)"><g/></g></g><g fill="#000000" fill-opacity="1"><g transform="translate(750.673387, 764.899823)"><g/></g></g><g fill="#000000" fill-opacity="1"><g transform="translate(753.148371, 764.899823)"><g/></g></g><g fill="#000000" fill-opacity="1"><g transform="translate(755.623354, 764.899823)"><g/></g></g><g fill="#000000" fill-opacity="1"><g transform="translate(758.098337, 764.899823)"><g/></g></g><g fill="#000000" fill-opacity="1"><g transform="translate(760.573321, 764.899823)"><g/></g></g><g fill="#000000" fill-opacity="1"><g transform="translate(763.048304, 764.899823)"><g/></g></g><g fill="#000000" fill-opacity="1"><g transform="translate(765.523287, 764.899823)"><g/></g></g><g clip-path="url(#37ac674732)"><path fill="#92695d" d="M 729.742188 44.503906 C 729.742188 37.464844 724.1875 31.910156 717.144531 31.910156 L 265.875 31.910156 C 258.835938 31.910156 253.277344 37.464844 253.277344 44.503906 L 253.277344 72.289062 L 48.390625 138.972656 C 41.722656 141.195312 38.386719 148.234375 40.242188 154.902344 L 227.34375 727.269531 C 228.457031 730.601562 230.679688 733.195312 233.644531 734.679688 C 235.496094 735.417969 237.347656 736.160156 239.199219 736.160156 C 240.683594 736.160156 241.792969 735.789062 243.277344 735.417969 L 457.796875 665.03125 C 460.761719 663.917969 463.351562 661.695312 464.835938 659.101562 L 616.742188 659.101562 C 617.851562 659.101562 618.964844 658.734375 620.074219 658.363281 C 620.445312 658.363281 620.816406 658.363281 621.558594 657.992188 C 623.039062 657.25 624.519531 656.511719 625.632812 655.398438 C 625.632812 655.398438 625.632812 655.398438 625.632812 655.027344 L 725.667969 555.003906 C 726.78125 553.890625 727.890625 552.410156 728.261719 550.929688 C 729.003906 549.445312 729.375 547.59375 729.375 546.113281 L 729.375 44.503906 Z M 629.707031 558.707031 L 687.136719 558.707031 L 629.707031 616.128906 Z M 278.101562 57.101562 L 704.550781 57.101562 L 704.550781 533.886719 L 616.742188 533.886719 C 613.40625 533.886719 610.070312 535.367188 607.847656 537.589844 C 605.625 539.8125 604.144531 543.148438 604.144531 546.484375 L 604.144531 634.28125 L 278.101562 634.28125 Z M 247.722656 707.261719 L 68.398438 158.976562 L 253.277344 98.59375 L 253.277344 646.878906 C 253.277344 653.917969 258.835938 659.472656 265.875 659.472656 L 395.550781 659.472656 Z M 247.722656 707.261719 " fill-opacity="1" fill-rule="nonzero"/></g><path fill="#92695d" d="M 341.089844 169.722656 L 642.304688 169.722656 C 649.34375 169.722656 654.902344 164.164062 654.902344 157.125 C 654.902344 150.085938 649.34375 144.53125 642.304688 144.53125 L 341.089844 144.53125 C 334.046875 144.53125 328.492188 150.085938 328.492188 157.125 C 328.492188 164.164062 334.046875 169.722656 341.089844 169.722656 Z M 341.089844 169.722656 " fill-opacity="1" fill-rule="nonzero"/><path fill="#92695d" d="M 341.089844 245.296875 L 642.304688 245.296875 C 649.34375 245.296875 654.902344 239.738281 654.902344 232.699219 C 654.902344 225.660156 649.34375 220.105469 642.304688 220.105469 L 341.089844 220.105469 C 334.046875 220.105469 328.492188 225.660156 328.492188 232.699219 C 328.492188 239.738281 334.046875 245.296875 341.089844 245.296875 Z M 341.089844 245.296875 " fill-opacity="1" fill-rule="nonzero"/><path fill="#92695d" d="M 341.089844 470.910156 L 642.304688 470.910156 C 649.34375 470.910156 654.902344 465.351562 654.902344 458.3125 C 654.902344 451.273438 649.34375 445.714844 642.304688 445.714844 L 341.089844 445.714844 C 334.046875 445.714844 328.492188 451.273438 328.492188 458.3125 C 328.492188 465.351562 334.046875 470.910156 341.089844 470.910156 Z M 341.089844 470.910156 " fill-opacity="1" fill-rule="nonzero"/><path fill="#92695d" d="M 341.089844 320.5 L 642.304688 320.5 C 649.34375 320.5 654.902344 314.945312 654.902344 307.90625 C 654.902344 300.867188 649.34375 295.308594 642.304688 295.308594 L 341.089844 295.308594 C 334.046875 295.308594 328.492188 300.867188 328.492188 307.90625 C 328.492188 314.945312 334.046875 320.5 341.089844 320.5 Z M 341.089844 320.5 " fill-opacity="1" fill-rule="nonzero"/><path fill="#92695d" d="M 579.320312 521.292969 L 341.089844 521.292969 C 334.046875 521.292969 328.492188 526.847656 328.492188 533.886719 C 328.492188 540.925781 334.046875 546.484375 341.089844 546.484375 L 579.320312 546.484375 C 586.359375 546.484375 591.917969 540.925781 591.917969 533.886719 C 591.917969 526.847656 586.359375 521.292969 579.320312 521.292969 Z M 579.320312 521.292969 " fill-opacity="1" fill-rule="nonzero"/><path fill="#92695d" d="M 341.089844 395.703125 L 642.304688 395.703125 C 649.34375 395.703125 654.902344 390.148438 654.902344 383.109375 C 654.902344 376.070312 649.34375 370.511719 642.304688 370.511719 L 341.089844 370.511719 C 334.046875 370.511719 328.492188 376.070312 328.492188 383.109375 C 328.492188 390.148438 334.046875 395.703125 341.089844 395.703125 Z M 341.089844 395.703125 " fill-opacity="1" fill-rule="nonzero"/></svg>