<svg xmlns="http://www.w3.org/2000/svg" xmlns:xlink="http://www.w3.org/1999/xlink" width="1024" zoomAndPan="magnify" viewBox="0 0 768 767.999994" height="1024" preserveAspectRatio="xMidYMid meet" version="1.0"><defs><g/><clipPath id="9c05e05a43"><path d="M 105 175 L 690.851562 175 L 690.851562 736.089844 L 105 736.089844 Z M 105 175 " clip-rule="nonzero"/></clipPath><clipPath id="d85b4ef8c2"><path d="M 251 31.089844 L 547 31.089844 L 547 295 L 251 295 Z M 251 31.089844 " clip-rule="nonzero"/></clipPath><clipPath id="3e55132ac6"><path d="M 243.800781 330.964844 L 551.300781 330.964844 L 551.300781 638.464844 L 243.800781 638.464844 Z M 243.800781 330.964844 " clip-rule="nonzero"/></clipPath></defs><g clip-path="url(#9c05e05a43)"><path fill="#92695d" d="M 647.519531 736.089844 L 149.878906 736.089844 C 137.796875 736.089844 126.070312 731.042969 117.789062 722.253906 C 109.476562 713.464844 105.085938 701.488281 105.761719 689.394531 L 131.960938 217.425781 C 133.257812 193.976562 152.621094 175.628906 176.082031 175.628906 L 621.320312 175.628906 C 644.78125 175.628906 664.140625 193.976562 665.4375 217.425781 L 691.636719 689.394531 C 692.316406 701.488281 687.925781 713.464844 679.613281 722.253906 C 671.304688 731.042969 659.601562 736.089844 647.519531 736.089844 Z M 176.082031 205.125 C 168.269531 205.125 161.785156 211.261719 161.375 219.050781 L 135.175781 691.015625 C 134.96875 695.117188 136.382812 699.007812 139.183594 701.988281 C 142.011719 704.9375 145.785156 706.589844 149.878906 706.589844 L 647.519531 706.589844 C 651.617188 706.589844 655.417969 704.9375 658.21875 701.988281 C 661.019531 699.007812 662.460938 695.117188 662.226562 691.015625 L 636.027344 219.050781 C 635.613281 211.261719 629.132812 205.125 621.320312 205.125 Z M 176.082031 205.125 " fill-opacity="1" fill-rule="nonzero"/></g><g clip-path="url(#d85b4ef8c2)"><path fill="#92695d" d="M 531.316406 294.328125 C 523.183594 294.328125 516.582031 287.71875 516.582031 279.578125 L 516.582031 178.34375 C 516.582031 113.269531 463.710938 60.351562 398.699219 60.351562 C 333.6875 60.351562 280.820312 113.269531 280.820312 178.34375 L 280.820312 279.578125 C 280.820312 287.71875 274.21875 294.328125 266.082031 294.328125 C 257.949219 294.328125 251.347656 287.71875 251.347656 279.578125 L 251.347656 178.34375 C 251.347656 97.015625 317.449219 30.851562 398.699219 30.851562 C 479.949219 30.851562 546.054688 97.015625 546.054688 178.34375 L 546.054688 279.578125 C 546.054688 287.71875 539.453125 294.328125 531.316406 294.328125 Z M 531.316406 294.328125 " fill-opacity="1" fill-rule="nonzero"/></g><g clip-path="url(#3e55132ac6)"><path fill="#92695d" d="M 397.550781 330.964844 C 312.636719 330.964844 243.800781 399.800781 243.800781 484.714844 C 243.800781 569.625 312.636719 638.464844 397.550781 638.464844 C 482.464844 638.464844 551.300781 569.625 551.300781 484.714844 C 551.300781 399.800781 482.464844 330.964844 397.550781 330.964844 Z M 405.234375 563.464844 C 400.375 565.816406 394.726562 565.816406 389.867188 563.464844 C 321.71875 530.476562 279.847656 462.867188 318.835938 419.324219 C 336.023438 400.128906 365.621094 398.925781 383.664062 417.296875 C 392.921875 426.722656 397.550781 439.253906 397.550781 451.78125 C 397.550781 439.253906 402.179688 426.722656 411.4375 417.296875 C 429.480469 398.925781 459.078125 400.128906 476.265625 419.324219 C 515.253906 462.867188 473.382812 530.476562 405.234375 563.464844 Z M 405.234375 563.464844 " fill-opacity="1" fill-rule="nonzero"/></g><g fill="#000000" fill-opacity="1"><g transform="translate(740.773454, 764.899823)"><g/></g></g><g fill="#000000" fill-opacity="1"><g transform="translate(743.248438, 764.899823)"><g/></g></g><g fill="#000000" fill-opacity="1"><g transform="translate(745.723421, 764.899823)"><g/></g></g><g fill="#000000" fill-opacity="1"><g transform="translate(748.198404, 764.899823)"><g/></g></g><g fill="#000000" fill-opacity="1"><g transform="translate(750.673387, 764.899823)"><g/></g></g><g fill="#000000" fill-opacity="1"><g transform="translate(753.148371, 764.899823)"><g/></g></g><g fill="#000000" fill-opacity="1"><g transform="translate(755.623354, 764.899823)"><g/></g></g><g fill="#000000" fill-opacity="1"><g transform="translate(758.098337, 764.899823)"><g/></g></g><g fill="#000000" fill-opacity="1"><g transform="translate(760.573321, 764.899823)"><g/></g></g><g fill="#000000" fill-opacity="1"><g transform="translate(763.048304, 764.899823)"><g/></g></g><g fill="#000000" fill-opacity="1"><g transform="translate(765.523287, 764.899823)"><g/></g></g></svg>