<svg xmlns="http://www.w3.org/2000/svg" xmlns:xlink="http://www.w3.org/1999/xlink" width="1024" zoomAndPan="magnify" viewBox="0 0 768 767.999994" height="1024" preserveAspectRatio="xMidYMid meet" version="1.0"><defs><g/></defs><path fill="#92695d" d="M 575.496094 502.96875 L 735.035156 662.484375 C 755.054688 682.523438 755.054688 715.003906 735.035156 735.023438 C 715.015625 755.019531 682.535156 755.019531 662.519531 735.023438 L 502.980469 575.484375 Z M 575.496094 502.96875 " fill-opacity="1" fill-rule="nonzero"/><path fill="#92695d" d="M 126.714844 126.703125 C 222.007812 31.433594 377.03125 31.433594 472.28125 126.703125 C 559.039062 213.398438 566.550781 349.464844 495.425781 445.128906 L 543.34375 493.023438 L 493.015625 543.308594 L 445.097656 495.390625 C 349.523438 566.539062 213.433594 559.027344 126.714844 472.289062 C 31.421875 377.019531 31.421875 221.996094 126.714844 126.703125 Z M 163.105469 435.902344 C 238.335938 511.152344 360.726562 511.152344 435.933594 435.902344 C 511.164062 360.691406 511.164062 238.304688 435.933594 163.070312 C 360.703125 87.863281 238.3125 87.863281 163.105469 163.070312 C 87.875 238.324219 87.875 360.691406 163.105469 435.902344 Z M 163.105469 435.902344 " fill-opacity="1" fill-rule="nonzero"/><path fill="#92695d" d="M 202.792969 152.648438 C 261.4375 113.960938 337.296875 113.871094 395.984375 152.519531 C 401.914062 156.449219 403.582031 164.417969 399.675781 170.324219 C 399.175781 171.0625 398.613281 171.757812 398.027344 172.34375 C 393.792969 176.578125 387.039062 177.402344 381.871094 173.992188 C 331.738281 141.035156 267.039062 141.078125 216.949219 174.121094 C 211.023438 178.074219 203.03125 176.402344 199.148438 170.496094 C 195.261719 164.589844 196.824219 156.601562 202.792969 152.648438 Z M 202.792969 152.648438 " fill-opacity="1" fill-rule="nonzero"/><g fill="#000000" fill-opacity="1"><g transform="translate(740.773454, 764.899991)"><g/></g></g><g fill="#000000" fill-opacity="1"><g transform="translate(743.248438, 764.899991)"><g/></g></g><g fill="#000000" fill-opacity="1"><g transform="translate(745.723421, 764.899991)"><g/></g></g><g fill="#000000" fill-opacity="1"><g transform="translate(748.198404, 764.899991)"><g/></g></g><g fill="#000000" fill-opacity="1"><g transform="translate(750.673387, 764.899991)"><g/></g></g><g fill="#000000" fill-opacity="1"><g transform="translate(753.148371, 764.899991)"><g/></g></g><g fill="#000000" fill-opacity="1"><g transform="translate(755.623354, 764.899991)"><g/></g></g><g fill="#000000" fill-opacity="1"><g transform="translate(758.098337, 764.899991)"><g/></g></g><g fill="#000000" fill-opacity="1"><g transform="translate(760.573321, 764.899991)"><g/></g></g><g fill="#000000" fill-opacity="1"><g transform="translate(763.048304, 764.899991)"><g/></g></g><g fill="#000000" fill-opacity="1"><g transform="translate(765.523287, 764.899991)"><g/></g></g></svg>