<svg xmlns="http://www.w3.org/2000/svg" xmlns:xlink="http://www.w3.org/1999/xlink" width="1024" zoomAndPan="magnify" viewBox="0 0 768 767.999994" height="1024" preserveAspectRatio="xMidYMid meet" version="1.0"><defs><g/><clipPath id="f06e4b8e7f"><path d="M 9.371094 8.039062 L 758.621094 8.039062 L 758.621094 757.289062 L 9.371094 757.289062 Z M 9.371094 8.039062 " clip-rule="nonzero"/></clipPath></defs><g fill="#000000" fill-opacity="1"><g transform="translate(740.773454, 764.900063)"><g/></g></g><g fill="#000000" fill-opacity="1"><g transform="translate(743.248438, 764.900063)"><g/></g></g><g fill="#000000" fill-opacity="1"><g transform="translate(745.723421, 764.900063)"><g/></g></g><g fill="#000000" fill-opacity="1"><g transform="translate(748.198404, 764.900063)"><g/></g></g><g fill="#000000" fill-opacity="1"><g transform="translate(750.673387, 764.900063)"><g/></g></g><g fill="#000000" fill-opacity="1"><g transform="translate(753.148371, 764.900063)"><g/></g></g><g fill="#000000" fill-opacity="1"><g transform="translate(755.623354, 764.900063)"><g/></g></g><g fill="#000000" fill-opacity="1"><g transform="translate(758.098337, 764.900063)"><g/></g></g><g fill="#000000" fill-opacity="1"><g transform="translate(760.573321, 764.900063)"><g/></g></g><g fill="#000000" fill-opacity="1"><g transform="translate(763.048304, 764.900063)"><g/></g></g><g fill="#000000" fill-opacity="1"><g transform="translate(765.523287, 764.900063)"><g/></g></g><path fill="#92695d" d="M 40.589844 382.664062 C 40.589844 388.285156 40.726562 393.902344 41.003906 399.515625 C 41.277344 405.128906 41.691406 410.730469 42.242188 416.324219 C 42.792969 421.917969 43.480469 427.496094 44.304688 433.054688 C 45.128906 438.613281 46.089844 444.148438 47.1875 449.660156 C 48.285156 455.171875 49.515625 460.65625 50.878906 466.105469 C 52.246094 471.558594 53.746094 476.972656 55.375 482.351562 C 57.007812 487.730469 58.769531 493.0625 60.664062 498.355469 C 62.554688 503.648438 64.578125 508.890625 66.730469 514.082031 C 68.878906 519.273438 71.15625 524.410156 73.558594 529.492188 C 75.960938 534.570312 78.488281 539.589844 81.136719 544.546875 C 83.789062 549.503906 86.554688 554.390625 89.445312 559.210938 C 92.335938 564.03125 95.339844 568.777344 98.464844 573.453125 C 101.585938 578.125 104.820312 582.71875 108.167969 587.230469 C 111.515625 591.746094 114.972656 596.175781 118.539062 600.519531 C 122.105469 604.863281 125.773438 609.117188 129.546875 613.28125 C 133.320312 617.445312 137.195312 621.515625 141.171875 625.492188 C 145.144531 629.464844 149.214844 633.339844 153.378906 637.113281 C 157.542969 640.886719 161.796875 644.554688 166.140625 648.121094 C 170.484375 651.6875 174.914062 655.144531 179.429688 658.492188 C 183.941406 661.839844 188.535156 665.074219 193.210938 668.195312 C 197.882812 671.320312 202.628906 674.324219 207.449219 677.214844 C 212.269531 680.105469 217.15625 682.875 222.113281 685.523438 C 227.070312 688.171875 232.089844 690.699219 237.171875 693.101562 C 242.25 695.503906 247.386719 697.78125 252.578125 699.929688 C 257.773438 702.082031 263.011719 704.105469 268.304688 705.996094 C 273.597656 707.890625 278.929688 709.652344 284.308594 711.285156 C 289.6875 712.914062 295.101562 714.414062 300.554688 715.78125 C 306.007812 717.144531 311.488281 718.375 317 719.472656 C 322.511719 720.570312 328.046875 721.53125 333.605469 722.355469 C 339.167969 723.179688 344.742188 723.867188 350.335938 724.417969 C 355.929688 724.96875 361.53125 725.382812 367.144531 725.65625 C 372.757812 725.933594 378.375 726.070312 383.996094 726.070312 C 389.617188 726.070312 395.230469 725.933594 400.84375 725.65625 C 406.457031 725.382812 412.0625 724.96875 417.65625 724.417969 C 423.246094 723.867188 428.824219 723.179688 434.382812 722.355469 C 439.941406 721.53125 445.476562 720.570312 450.992188 719.472656 C 456.503906 718.375 461.984375 717.144531 467.4375 715.78125 C 472.886719 714.414062 478.300781 712.914062 483.679688 711.285156 C 489.058594 709.652344 494.394531 707.890625 499.683594 705.996094 C 504.976562 704.105469 510.21875 702.082031 515.410156 699.929688 C 520.601562 697.78125 525.738281 695.503906 530.820312 693.101562 C 535.902344 690.699219 540.917969 688.171875 545.875 685.523438 C 550.832031 682.875 555.722656 680.105469 560.542969 677.214844 C 565.363281 674.324219 570.109375 671.320312 574.78125 668.195312 C 579.453125 665.074219 584.046875 661.839844 588.5625 658.492188 C 593.078125 655.144531 597.503906 651.6875 601.851562 648.121094 C 606.195312 644.554688 610.449219 640.886719 614.613281 637.113281 C 618.777344 633.339844 622.847656 629.464844 626.820312 625.492188 C 630.792969 621.515625 634.667969 617.445312 638.441406 613.28125 C 642.214844 609.117188 645.886719 604.863281 649.453125 600.519531 C 653.015625 596.175781 656.472656 591.746094 659.820312 587.230469 C 663.167969 582.71875 666.40625 578.125 669.527344 573.453125 C 672.648438 568.777344 675.65625 564.03125 678.542969 559.210938 C 681.433594 554.390625 684.203125 549.503906 686.851562 544.546875 C 689.5 539.589844 692.027344 534.570312 694.429688 529.492188 C 696.832031 524.410156 699.109375 519.273438 701.261719 514.082031 C 703.410156 508.890625 705.433594 503.648438 707.328125 498.355469 C 709.21875 493.0625 710.984375 487.730469 712.613281 482.351562 C 714.246094 476.972656 715.746094 471.558594 717.109375 466.105469 C 718.476562 460.65625 719.707031 455.171875 720.804688 449.660156 C 721.898438 444.148438 722.859375 438.613281 723.683594 433.054688 C 724.507812 427.496094 725.195312 421.917969 725.746094 416.324219 C 726.296875 410.730469 726.710938 405.128906 726.988281 399.515625 C 727.261719 393.902344 727.402344 388.285156 727.402344 382.664062 C 727.402344 377.046875 727.261719 371.429688 726.988281 365.816406 C 726.710938 360.203125 726.296875 354.597656 725.746094 349.003906 C 725.195312 343.414062 724.507812 337.835938 723.683594 332.277344 C 722.859375 326.71875 721.898438 321.183594 720.804688 315.671875 C 719.707031 310.15625 718.476562 304.675781 717.109375 299.222656 C 715.746094 293.773438 714.246094 288.359375 712.613281 282.980469 C 710.984375 277.601562 709.21875 272.265625 707.328125 266.976562 C 705.433594 261.683594 703.410156 256.441406 701.261719 251.25 C 699.109375 246.058594 696.832031 240.921875 694.429688 235.839844 C 692.027344 230.761719 689.5 225.742188 686.851562 220.785156 C 684.203125 215.828125 681.433594 210.941406 678.542969 206.121094 C 675.65625 201.296875 672.648438 196.550781 669.527344 191.878906 C 666.40625 187.207031 663.167969 182.613281 659.820312 178.097656 C 656.472656 173.585938 653.015625 169.15625 649.453125 164.8125 C 645.886719 160.464844 642.214844 156.210938 638.441406 152.046875 C 634.667969 147.882812 630.792969 143.816406 626.820312 139.839844 C 622.847656 135.867188 618.777344 131.992188 614.613281 128.21875 C 610.449219 124.445312 606.195312 120.773438 601.851562 117.207031 C 597.503906 113.644531 593.078125 110.1875 588.5625 106.839844 C 584.046875 103.492188 579.453125 100.257812 574.78125 97.132812 C 570.109375 94.011719 565.363281 91.003906 560.542969 88.117188 C 555.722656 85.226562 550.832031 82.457031 545.875 79.808594 C 540.917969 77.160156 535.902344 74.632812 530.820312 72.230469 C 525.738281 69.828125 520.601562 67.550781 515.410156 65.398438 C 510.21875 63.25 504.976562 61.226562 499.683594 59.332031 C 494.394531 57.441406 489.058594 55.675781 483.679688 54.046875 C 478.300781 52.414062 472.886719 50.917969 467.4375 49.550781 C 461.984375 48.183594 456.503906 46.953125 450.992188 45.859375 C 445.476562 44.761719 439.941406 43.800781 434.382812 42.976562 C 428.824219 42.152344 423.246094 41.464844 417.65625 40.914062 C 412.0625 40.363281 406.457031 39.949219 400.84375 39.671875 C 395.230469 39.398438 389.617188 39.257812 383.996094 39.257812 C 378.375 39.257812 372.757812 39.398438 367.144531 39.671875 C 361.53125 39.949219 355.929688 40.363281 350.335938 40.914062 C 344.742188 41.464844 339.167969 42.152344 333.605469 42.976562 C 328.046875 43.800781 322.511719 44.761719 317 45.859375 C 311.488281 46.953125 306.007812 48.183594 300.554688 49.550781 C 295.101562 50.917969 289.6875 52.414062 284.308594 54.046875 C 278.929688 55.675781 273.597656 57.441406 268.304688 59.332031 C 263.011719 61.226562 257.773438 63.25 252.578125 65.398438 C 247.386719 67.550781 242.25 69.828125 237.171875 72.230469 C 232.089844 74.632812 227.070312 77.160156 222.113281 79.808594 C 217.15625 82.457031 212.269531 85.226562 207.449219 88.117188 C 202.628906 91.003906 197.882812 94.011719 193.207031 97.132812 C 188.535156 100.257812 183.941406 103.492188 179.429688 106.839844 C 174.914062 110.1875 170.484375 113.644531 166.140625 117.207031 C 161.796875 120.773438 157.542969 124.445312 153.378906 128.21875 C 149.214844 131.992188 145.144531 135.867188 141.171875 139.839844 C 137.195312 143.816406 133.320312 147.882812 129.546875 152.046875 C 125.773438 156.210938 122.105469 160.464844 118.539062 164.8125 C 114.972656 169.15625 111.515625 173.585938 108.167969 178.097656 C 104.820312 182.613281 101.585938 187.207031 98.464844 191.878906 C 95.339844 196.550781 92.335938 201.296875 89.445312 206.121094 C 86.554688 210.941406 83.789062 215.828125 81.136719 220.785156 C 78.488281 225.742188 75.960938 230.757812 73.558594 235.839844 C 71.15625 240.921875 68.878906 246.058594 66.730469 251.25 C 64.578125 256.441406 62.554688 261.683594 60.664062 266.976562 C 58.769531 272.265625 57.007812 277.601562 55.375 282.980469 C 53.746094 288.359375 52.246094 293.773438 50.878906 299.222656 C 49.515625 304.675781 48.285156 310.15625 47.1875 315.671875 C 46.089844 321.183594 45.128906 326.71875 44.304688 332.277344 C 43.480469 337.835938 42.792969 343.414062 42.242188 349.003906 C 41.691406 354.597656 41.277344 360.203125 41.003906 365.816406 C 40.726562 371.429688 40.589844 377.046875 40.589844 382.664062 Z M 40.589844 382.664062 " fill-opacity="1" fill-rule="nonzero"/><path fill="#fffbf6" d="M 227.902344 351.445312 L 464.71875 351.445312 L 369.007812 255.734375 C 356.816406 243.539062 356.816406 223.773438 369.007812 211.582031 C 381.199219 199.390625 400.964844 199.390625 413.15625 211.582031 L 562.164062 360.589844 C 573.464844 371.890625 574.40625 390.0625 564.238281 402.445312 C 562.195312 404.941406 570.253906 396.558594 413.15625 553.75 C 400.96875 565.9375 381.199219 565.941406 369.007812 553.75 C 356.816406 541.558594 356.816406 521.789062 369.007812 509.597656 L 464.71875 413.882812 L 227.902344 413.882812 C 210.660156 413.882812 196.683594 399.90625 196.683594 382.664062 C 196.683594 365.421875 210.660156 351.445312 227.902344 351.445312 Z M 227.902344 351.445312 " fill-opacity="1" fill-rule="nonzero"/><g clip-path="url(#f06e4b8e7f)"><path fill="#fffbf6" d="M 383.996094 8.039062 C 591.035156 8.039062 758.621094 175.597656 758.621094 382.664062 C 758.621094 589.703125 591.066406 757.289062 383.996094 757.289062 C 176.957031 757.289062 9.371094 589.734375 9.371094 382.664062 C 9.371094 175.625 176.925781 8.039062 383.996094 8.039062 Z M 383.996094 694.851562 C 556.136719 694.851562 696.183594 554.804688 696.183594 382.664062 C 696.183594 210.523438 556.136719 70.476562 383.996094 70.476562 C 211.855469 70.476562 71.808594 210.523438 71.808594 382.664062 C 71.808594 554.804688 211.855469 694.851562 383.996094 694.851562 Z M 383.996094 694.851562 " fill-opacity="1" fill-rule="nonzero"/></g></svg>