<svg xmlns="http://www.w3.org/2000/svg" xmlns:xlink="http://www.w3.org/1999/xlink" width="1024" zoomAndPan="magnify" viewBox="0 0 768 767.999994" height="1024" preserveAspectRatio="xMidYMid meet" version="1.0"><defs><g/><clipPath id="3403ef6e90"><path d="M 210.445312 112 L 582.445312 112 L 582.445312 431.730469 L 210.445312 431.730469 Z M 210.445312 112 " clip-rule="nonzero"/></clipPath></defs><g fill="#000000" fill-opacity="1"><g transform="translate(740.773454, 764.899991)"><g/></g></g><g fill="#000000" fill-opacity="1"><g transform="translate(743.248438, 764.899991)"><g/></g></g><g fill="#000000" fill-opacity="1"><g transform="translate(745.723421, 764.899991)"><g/></g></g><g fill="#000000" fill-opacity="1"><g transform="translate(748.198404, 764.899991)"><g/></g></g><g fill="#000000" fill-opacity="1"><g transform="translate(750.673387, 764.899991)"><g/></g></g><g fill="#000000" fill-opacity="1"><g transform="translate(753.148371, 764.899991)"><g/></g></g><g fill="#000000" fill-opacity="1"><g transform="translate(755.623354, 764.899991)"><g/></g></g><g fill="#000000" fill-opacity="1"><g transform="translate(758.098337, 764.899991)"><g/></g></g><g fill="#000000" fill-opacity="1"><g transform="translate(760.573321, 764.899991)"><g/></g></g><g fill="#000000" fill-opacity="1"><g transform="translate(763.048304, 764.899991)"><g/></g></g><g fill="#000000" fill-opacity="1"><g transform="translate(765.523287, 764.899991)"><g/></g></g><g clip-path="url(#3403ef6e90)"><path fill="#92695d" d="M 582.445312 268.171875 C 582.46875 267.371094 582.15625 266.597656 581.59375 266.023438 L 558.796875 242.957031 C 558.226562 242.382812 557.480469 242.078125 556.625 242.078125 C 555.8125 242.101562 555.042969 242.453125 554.5 243.058594 L 510.792969 291.707031 L 500.898438 291.707031 L 510.601562 191.082031 C 510.617188 190.917969 510.5625 190.773438 510.554688 190.613281 C 510.542969 190.457031 510.578125 190.304688 510.542969 190.148438 L 503.734375 159.980469 C 503.453125 158.734375 502.40625 157.8125 501.136719 157.691406 C 499.882812 157.582031 498.667969 158.273438 498.152344 159.441406 L 485.710938 187.707031 C 485.648438 187.851562 485.652344 188 485.613281 188.144531 C 485.566406 188.304688 485.484375 188.449219 485.46875 188.617188 L 475.527344 291.707031 L 467.820312 291.707031 L 467.820312 164.175781 C 467.820312 163.972656 467.777344 163.773438 467.738281 163.578125 C 467.730469 163.539062 467.742188 163.503906 467.730469 163.464844 L 461.285156 137.371094 C 460.960938 136.050781 459.777344 135.125 458.417969 135.125 L 454.921875 135.125 L 454.921875 128.296875 C 454.921875 126.660156 453.597656 125.339844 451.96875 125.339844 C 450.339844 125.339844 449.015625 126.660156 449.015625 128.296875 L 449.015625 135.128906 L 445.519531 135.128906 C 444.164062 135.128906 442.980469 136.050781 442.65625 137.371094 L 436.207031 163.46875 C 436.199219 163.507812 436.210938 163.539062 436.199219 163.578125 C 436.160156 163.773438 436.117188 163.972656 436.117188 164.175781 L 436.117188 249.449219 C 435.640625 249.351562 435.148438 249.300781 434.640625 249.300781 L 433.828125 249.300781 C 429.757812 249.300781 426.445312 252.609375 426.445312 256.683594 L 426.445312 291.703125 L 402.378906 291.703125 L 429.015625 196.128906 C 429.0625 195.972656 429.035156 195.8125 429.054688 195.65625 C 429.070312 195.503906 429.128906 195.359375 429.125 195.199219 L 427.691406 164.285156 C 427.632812 163.011719 426.765625 161.921875 425.535156 161.578125 C 424.308594 161.226562 423 161.714844 422.292969 162.773438 L 405.105469 188.375 C 405.019531 188.503906 404.996094 188.652344 404.933594 188.792969 C 404.863281 188.941406 404.757812 189.066406 404.714844 189.226562 L 400.109375 205.738281 L 400.109375 199.761719 C 400.109375 199.597656 400.042969 199.457031 400.019531 199.300781 C 399.996094 199.144531 400.011719 198.988281 399.964844 198.832031 L 390.292969 169.476562 C 389.894531 168.269531 388.761719 167.445312 387.488281 167.445312 C 386.210938 167.445312 385.082031 168.265625 384.683594 169.476562 L 375.007812 198.832031 C 374.960938 198.988281 374.980469 199.144531 374.953125 199.300781 C 374.925781 199.457031 374.863281 199.597656 374.863281 199.761719 L 374.863281 282.207031 L 347.089844 227.90625 L 388.621094 150.144531 C 389.386719 148.714844 388.851562 146.933594 387.433594 146.15625 L 353.398438 127.542969 C 352.703125 127.167969 351.890625 127.082031 351.136719 127.308594 C 350.382812 127.53125 349.75 128.050781 349.378906 128.742188 L 345.445312 136.105469 C 334.285156 119.582031 313.296875 107.226562 297.328125 114.449219 C 287.148438 119.046875 282.355469 129.816406 280.171875 137.464844 C 272.582031 135.300781 261.007812 133.730469 251.78125 140.042969 C 243.765625 145.519531 239.390625 155.722656 239.449219 168.769531 C 239.507812 180.292969 243.121094 192.410156 249.121094 201.183594 C 258.699219 215.191406 276.246094 223.296875 296.128906 223.296875 C 297.050781 223.296875 297.984375 223.253906 298.917969 223.21875 L 281.742188 255.378906 L 280.839844 245.277344 C 280.769531 244.496094 280.390625 243.773438 279.789062 243.273438 C 279.1875 242.769531 278.40625 242.53125 277.628906 242.597656 L 277.027344 242.65625 L 276.519531 237.066406 C 276.308594 234.710938 275.195312 232.585938 273.386719 231.082031 C 271.59375 229.59375 269.316406 228.910156 267.027344 229.101562 L 250.148438 230.664062 C 245.355469 231.105469 241.8125 235.402344 242.25 240.226562 L 242.753906 245.828125 L 242.140625 245.882812 C 240.519531 246.035156 239.328125 247.46875 239.472656 249.09375 L 243.324219 291.707031 L 239.191406 291.707031 C 237.5625 291.707031 236.238281 293.027344 236.238281 294.660156 L 236.238281 311.863281 C 230.910156 313.050781 225.804688 315.226562 221.375 318.34375 C 219.679688 319.53125 218.0625 320.863281 216.574219 322.285156 C 212.679688 326.003906 210.445312 331.261719 210.445312 336.710938 L 210.445312 411.503906 C 210.445312 422.453125 219.265625 431.363281 230.105469 431.363281 L 538.441406 431.363281 C 549.28125 431.363281 558.09375 422.453125 558.09375 411.503906 L 558.09375 336.710938 C 558.09375 331.261719 555.863281 326.003906 551.972656 322.289062 C 550.476562 320.859375 548.859375 319.53125 547.167969 318.34375 C 543.609375 315.839844 539.609375 313.945312 535.414062 312.664062 L 581.492188 270.277344 C 582.082031 269.734375 582.425781 268.972656 582.445312 268.171875 Z M 494.964844 291.707031 L 491.179688 291.707031 L 500.6875 193.078125 L 504.4375 193.449219 Z M 499.945312 170.019531 L 503.882812 187.457031 L 492.753906 186.359375 Z M 491.066406 192.128906 L 494.8125 192.496094 L 485.25 291.707031 L 481.464844 291.707031 Z M 461.917969 172.714844 C 458.039062 171.359375 454.515625 171.011719 451.976562 171.011719 C 448.117188 171.011719 444.757812 171.757812 442.03125 172.714844 L 442.03125 166.015625 C 444.484375 164.914062 447.882812 163.871094 451.976562 163.871094 C 454.433594 163.871094 458.042969 164.261719 461.917969 166.011719 Z M 442.03125 256.6875 L 442.03125 179.0625 C 444.480469 177.964844 447.878906 176.921875 451.976562 176.921875 C 454.433594 176.921875 458.042969 177.3125 461.917969 179.0625 L 461.917969 291.710938 L 442.03125 291.710938 Z M 447.839844 141.035156 L 456.113281 141.035156 L 460.609375 159.242188 C 457.25 158.238281 454.226562 157.960938 451.976562 157.960938 C 449.042969 157.960938 446.136719 158.449219 443.328125 159.292969 Z M 432.359375 256.6875 C 432.359375 255.875 433.019531 255.210938 433.835938 255.210938 L 434.652344 255.210938 C 435.464844 255.210938 436.125 255.875 436.125 256.6875 L 436.125 291.707031 L 432.359375 291.707031 Z M 396.253906 291.707031 L 382.289062 291.707031 L 409.609375 193.675781 L 422.546875 197.367188 Z M 330.394531 259.1875 L 349.5 291.710938 L 313.027344 291.710938 Z M 356.351562 291.707031 L 333.660156 253.082031 L 336.523438 247.71875 L 355.511719 257.328125 L 373.097656 291.710938 L 356.351562 291.710938 Z M 423.042969 191.367188 L 412.277344 188.296875 L 422.210938 173.496094 Z M 380.777344 275.140625 L 380.777344 202.71875 L 394.214844 202.71875 L 394.214844 226.921875 Z M 387.496094 179.84375 L 393.085938 196.808594 L 381.90625 196.808594 Z M 350.941406 248.390625 L 339.304688 242.503906 L 343.710938 234.253906 Z M 353.1875 134.164062 L 382.042969 149.941406 L 332.644531 242.441406 C 332.644531 242.441406 332.640625 242.441406 332.640625 242.441406 C 332.640625 242.441406 332.640625 242.445312 332.640625 242.445312 L 306.332031 291.707031 L 269.050781 291.707031 L 279.621094 271.917969 L 294.027344 279.792969 C 294.472656 280.039062 294.957031 280.152344 295.441406 280.152344 C 296.484375 280.152344 297.496094 279.597656 298.03125 278.613281 C 298.816406 277.183594 298.289062 275.390625 296.855469 274.605469 L 282.40625 266.703125 L 288.816406 254.699219 L 303.222656 262.574219 C 303.671875 262.820312 304.15625 262.933594 304.636719 262.933594 C 305.683594 262.933594 306.695312 262.378906 307.230469 261.394531 C 308.011719 259.964844 307.484375 258.171875 306.054688 257.386719 L 291.601562 249.484375 L 298.015625 237.480469 L 312.417969 245.355469 C 312.867188 245.601562 313.351562 245.714844 313.832031 245.714844 C 314.878906 245.714844 315.890625 245.160156 316.425781 244.175781 C 317.207031 242.746094 316.683594 240.953125 315.25 240.167969 L 300.796875 232.265625 L 307.210938 220.261719 L 321.617188 228.136719 C 322.066406 228.382812 322.546875 228.496094 323.03125 228.496094 C 324.074219 228.496094 325.085938 227.941406 325.621094 226.957031 C 326.40625 225.527344 325.878906 223.734375 324.445312 222.949219 L 309.996094 215.046875 L 316.40625 203.039062 L 330.8125 210.914062 C 331.261719 211.160156 331.746094 211.277344 332.226562 211.277344 C 333.273438 211.277344 334.285156 210.71875 334.820312 209.738281 C 335.601562 208.308594 335.074219 206.511719 333.644531 205.726562 L 319.191406 197.828125 L 325.605469 185.820312 L 340.007812 193.695312 C 340.457031 193.941406 340.941406 194.058594 341.421875 194.058594 C 342.46875 194.058594 343.480469 193.5 344.015625 192.519531 C 344.796875 191.089844 344.273438 189.292969 342.839844 188.507812 L 328.386719 180.609375 L 334.800781 168.605469 L 349.207031 176.480469 C 349.65625 176.726562 350.140625 176.839844 350.621094 176.839844 C 351.664062 176.839844 352.679688 176.285156 353.210938 175.300781 C 353.996094 173.871094 353.46875 172.074219 352.035156 171.292969 L 337.585938 163.394531 L 343.996094 151.390625 L 358.402344 159.265625 C 358.851562 159.511719 359.335938 159.625 359.816406 159.625 C 360.863281 159.625 361.875 159.070312 362.410156 158.085938 C 363.191406 156.65625 362.664062 154.859375 361.234375 154.078125 L 346.78125 146.179688 Z M 246.234375 251.441406 L 274.625 248.8125 C 274.628906 248.8125 274.632812 248.808594 274.632812 248.808594 L 275.226562 248.753906 L 276.316406 260.824219 L 246.714844 263.5625 L 245.621094 251.492188 L 246.195312 251.441406 C 246.207031 251.445312 246.222656 251.445312 246.234375 251.441406 Z M 247.246094 269.453125 L 275.644531 266.824219 L 270.84375 275.816406 L 248.011719 277.929688 Z M 321.960938 180.101562 L 302.492188 144.636719 C 302.960938 141.332031 304.347656 135.339844 308.316406 133.652344 C 315.390625 130.636719 328.5 142.078125 333.496094 153.128906 C 333.960938 154.152344 334.3125 155.234375 334.667969 156.3125 Z M 299.769531 119.839844 C 313.414062 113.695312 333.039062 126.351562 342.253906 142.109375 L 338.292969 149.523438 C 332.25 137.324219 317.277344 123.441406 306.015625 128.214844 C 299.03125 131.175781 297.0625 139.933594 296.511719 144.890625 C 296.445312 145.496094 296.566406 146.109375 296.855469 146.640625 L 318.640625 186.324219 L 314.570312 193.945312 L 285.40625 140.800781 C 286.824219 135.140625 290.710938 123.929688 299.769531 119.839844 Z M 254.007812 197.851562 C 248.648438 190.019531 245.417969 179.136719 245.367188 168.746094 C 245.339844 162.363281 246.5625 150.777344 255.125 144.925781 C 263.101562 139.476562 273.882812 141.605469 280.234375 143.660156 L 311.246094 200.164062 L 302.203125 217.09375 C 281.800781 218.898438 263.421875 211.617188 254.007812 197.851562 Z M 248.132812 239.699219 C 247.988281 238.105469 249.136719 236.691406 250.695312 236.550781 L 267.574219 234.988281 C 267.65625 234.980469 267.746094 234.976562 267.828125 234.976562 C 268.480469 234.976562 269.101562 235.203125 269.609375 235.628906 C 270.203125 236.121094 270.570312 236.820312 270.640625 237.601562 L 271.148438 243.203125 L 248.640625 245.289062 Z M 248.542969 283.8125 L 267.511719 282.058594 L 262.359375 291.707031 L 249.261719 291.707031 Z M 242.144531 297.613281 L 508.84375 297.613281 C 508.90625 297.691406 508.933594 297.785156 509.007812 297.855469 L 522.269531 311.28125 L 242.144531 311.28125 Z M 552.1875 371.765625 C 545.292969 364.496094 535.539062 360.210938 525.078125 360.210938 C 510.804688 360.210938 497.667969 368.355469 491.644531 380.894531 L 491.527344 381.125 C 484.257812 394.382812 470.136719 402.617188 454.671875 402.617188 C 439.207031 402.617188 425.085938 394.382812 417.78125 381.0625 C 410.304688 368.199219 396.179688 360.210938 380.910156 360.210938 C 365.644531 360.210938 351.488281 368.253906 344 381.136719 L 343.855469 381.375 C 342.414062 383.550781 329.050781 402.613281 303.796875 402.613281 C 278.535156 402.613281 265.179688 383.550781 263.761719 381.402344 C 262.792969 379.902344 253.808594 366.730469 236.742188 366.730469 C 227.667969 366.730469 220.855469 370.515625 216.351562 374.21875 L 216.351562 365.425781 C 222.628906 361.566406 229.476562 359.589844 236.742188 359.589844 C 258.375 359.589844 269.648438 376.878906 270.152344 377.664062 C 270.640625 378.390625 282.308594 395.472656 303.796875 395.472656 C 324.636719 395.472656 336.144531 379.550781 337.496094 377.5625 C 346.367188 362.453125 363.003906 353.0625 380.910156 353.0625 C 398.910156 353.0625 415.585938 362.519531 424.394531 377.679688 C 430.414062 388.652344 442.015625 395.46875 454.671875 395.46875 C 467.257812 395.46875 478.800781 388.761719 484.863281 377.824219 C 492.167969 362.78125 507.957031 353.0625 525.085938 353.0625 C 534.847656 353.0625 544.40625 356.28125 552.195312 362.09375 L 552.195312 371.765625 Z M 538.4375 425.453125 L 230.105469 425.453125 C 222.523438 425.453125 216.351562 419.199219 216.351562 411.503906 L 216.351562 382.433594 C 219.320312 378.976562 226.199219 372.644531 236.742188 372.644531 C 250.921875 372.644531 258.484375 384.125 258.820312 384.644531 C 260.4375 387.085938 275.453125 408.527344 303.796875 408.527344 C 332.125 408.527344 347.152344 387.085938 348.828125 384.5625 L 349.0625 384.175781 C 355.535156 373.039062 367.742188 366.125 380.910156 366.125 C 394.082031 366.125 406.25 372.984375 412.640625 383.972656 C 420.945312 399.121094 437.054688 408.53125 454.671875 408.53125 C 472.292969 408.53125 488.402344 399.121094 496.746094 383.894531 L 496.9375 383.523438 C 502.015625 372.953125 513.058594 366.125 525.082031 366.125 C 536.398438 366.125 546.703125 372.0625 552.191406 381.632812 L 552.191406 411.507812 C 552.1875 419.199219 546.019531 425.453125 538.4375 425.453125 Z M 547.890625 326.5625 C 550.621094 329.167969 552.1875 332.867188 552.1875 336.710938 L 552.1875 354.964844 C 544.097656 349.925781 534.675781 347.164062 525.078125 347.164062 C 505.707031 347.164062 487.835938 358.1875 479.625 375.113281 C 474.675781 384.035156 465.113281 389.570312 454.671875 389.570312 C 444.167969 389.570312 434.550781 383.929688 429.53125 374.78125 C 419.632812 357.746094 401 347.164062 380.910156 347.164062 C 360.914062 347.164062 342.328125 357.667969 332.511719 374.402344 C 331.449219 375.953125 321.605469 389.570312 303.792969 389.570312 C 285.421875 389.570312 275.472656 375.007812 275.09375 374.441406 C 274.550781 373.59375 261.570312 353.691406 236.738281 353.691406 C 229.539062 353.691406 222.707031 355.378906 216.347656 358.660156 L 216.347656 336.714844 C 216.347656 332.871094 217.914062 329.171875 220.648438 326.5625 C 221.925781 325.335938 223.308594 324.199219 224.765625 323.179688 C 229.109375 320.125 234.195312 318.0625 239.484375 317.191406 L 529.054688 317.191406 C 534.339844 318.066406 539.425781 320.125 543.769531 323.179688 C 545.226562 324.199219 546.609375 325.335938 547.890625 326.5625 Z M 529.441406 310.132812 L 515.160156 295.6875 L 556.800781 249.339844 L 575.246094 268 Z M 529.441406 310.132812 " fill-opacity="1" fill-rule="nonzero"/></g><path fill="#92695d" d="M 540.921875 279.867188 L 527.242188 293.707031 C 526.09375 294.867188 526.105469 296.734375 527.265625 297.882812 C 527.84375 298.449219 528.59375 298.738281 529.34375 298.738281 C 530.105469 298.738281 530.867188 298.445312 531.441406 297.859375 L 545.121094 284.019531 C 546.269531 282.859375 546.257812 280.992188 545.097656 279.84375 C 543.9375 278.695312 542.0625 278.703125 540.921875 279.867188 Z M 540.921875 279.867188 " fill-opacity="1" fill-rule="nonzero"/><path fill="#92695d" d="M 547.757812 263.71875 C 544.113281 267.410156 544.113281 273.414062 547.757812 277.097656 C 549.535156 278.894531 551.898438 279.882812 554.414062 279.882812 C 556.929688 279.882812 559.292969 278.894531 561.070312 277.097656 C 564.714844 273.414062 564.714844 267.410156 561.070312 263.71875 C 557.523438 260.121094 551.316406 260.121094 547.757812 263.71875 Z M 556.878906 272.945312 C 555.5625 274.277344 553.273438 274.277344 551.957031 272.945312 C 550.574219 271.546875 550.574219 269.269531 551.957031 267.871094 C 552.617188 267.203125 553.488281 266.835938 554.417969 266.835938 C 555.34375 266.835938 556.21875 267.203125 556.875 267.871094 C 558.261719 269.269531 558.261719 271.546875 556.878906 272.945312 Z M 556.878906 272.945312 " fill-opacity="1" fill-rule="nonzero"/><path fill="#92695d" d="M 306.589844 205.859375 L 279.480469 156.464844 C 279.1875 155.921875 278.730469 155.492188 278.175781 155.226562 C 273.714844 153.074219 265.300781 150.121094 259.109375 154.566406 C 248.855469 161.929688 253.15625 183.191406 260.621094 194.601562 C 267.867188 205.667969 280.15625 212.003906 292.917969 212.003906 C 296.917969 212.003906 300.964844 211.382812 304.921875 210.089844 C 305.753906 209.816406 306.425781 209.183594 306.746094 208.367188 C 307.074219 207.546875 307.015625 206.628906 306.589844 205.859375 Z M 265.5625 191.367188 C 258.917969 181.21875 256.269531 163.882812 262.554688 159.371094 C 263.777344 158.492188 265.277344 158.164062 266.839844 158.164062 C 269.726562 158.164062 272.820312 159.292969 274.777344 160.164062 L 299.605469 205.398438 C 286.695312 208.003906 272.832031 202.46875 265.5625 191.367188 Z M 265.5625 191.367188 " fill-opacity="1" fill-rule="nonzero"/><g fill="#737373" fill-opacity="1"><g transform="translate(14.672532, 539.843739)"><g><path d="M 35.390625 0.273438 C 40.449219 0.273438 45.230469 -0.957031 49.738281 -3.554688 C 54.386719 -6.148438 58.210938 -9.839844 61.21875 -14.484375 C 64.226562 -19.128906 66.136719 -24.460938 66.820312 -30.472656 C 66.820312 -31.15625 66.957031 -31.839844 66.957031 -32.523438 C 66.957031 -33.207031 67.09375 -33.890625 67.09375 -34.707031 C 67.09375 -40.722656 65.726562 -46.1875 63.269531 -51.105469 C 60.671875 -56.027344 57.664062 -60.535156 54.113281 -64.632812 C 50.558594 -68.734375 47.007812 -72.695312 43.453125 -76.386719 C 39.902344 -79.9375 37.03125 -83.628906 34.980469 -87.453125 C 34.164062 -88.820312 33.34375 -90.597656 32.660156 -92.511719 C 31.839844 -94.425781 31.566406 -96.472656 31.566406 -98.523438 C 31.566406 -100.984375 32.25 -103.03125 33.753906 -104.808594 C 35.390625 -106.585938 37.441406 -107.542969 39.765625 -107.542969 C 41.542969 -107.542969 43.179688 -106.996094 44.546875 -106.175781 C 45.914062 -105.21875 46.871094 -104.125 47.417969 -103.03125 C 47.554688 -102.488281 47.691406 -101.804688 47.691406 -100.847656 C 47.691406 -99.480469 47.417969 -98.25 47.007812 -96.882812 C 46.597656 -95.515625 46.1875 -94.425781 45.914062 -93.46875 C 45.640625 -92.648438 45.640625 -91.964844 46.1875 -91.417969 C 46.734375 -90.734375 47.28125 -90.460938 48.101562 -90.460938 L 60.535156 -90.460938 C 61.21875 -90.460938 61.765625 -90.597656 62.175781 -91.144531 C 62.585938 -91.554688 62.859375 -92.101562 62.859375 -92.785156 C 62.859375 -93.058594 62.722656 -93.332031 62.722656 -93.605469 L 61.21875 -97.429688 C 61.082031 -97.703125 61.082031 -98.113281 61.082031 -98.386719 C 61.082031 -100.847656 60.535156 -103.304688 59.578125 -105.765625 C 58.484375 -108.226562 56.980469 -110.410156 54.933594 -112.460938 C 52.609375 -114.648438 50.148438 -116.289062 47.554688 -117.382812 C 44.957031 -118.472656 42.359375 -119.019531 39.765625 -119.019531 C 37.03125 -119.019531 34.296875 -118.472656 31.703125 -117.382812 C 29.105469 -116.289062 26.78125 -114.785156 24.871094 -112.871094 C 22.957031 -110.957031 21.316406 -108.636719 20.222656 -105.902344 C 18.992188 -103.167969 18.449219 -100.300781 18.449219 -97.019531 C 18.449219 -94.152344 18.859375 -91.144531 19.8125 -88.136719 C 20.769531 -84.996094 22.410156 -81.714844 24.734375 -78.300781 C 26.917969 -74.746094 29.515625 -71.46875 32.386719 -68.460938 C 35.253906 -65.453125 38.125 -62.449219 40.859375 -59.578125 C 43.589844 -56.574219 46.050781 -53.566406 48.238281 -50.421875 C 50.421875 -47.28125 52.0625 -43.863281 53.019531 -40.3125 C 53.292969 -38.945312 53.429688 -37.714844 53.703125 -36.621094 C 53.839844 -35.527344 53.976562 -34.433594 53.976562 -33.34375 C 53.976562 -30.0625 53.429688 -27.191406 52.335938 -24.597656 C 51.242188 -22 49.875 -19.8125 48.101562 -18.039062 C 46.324219 -16.125 44.273438 -14.757812 42.085938 -13.664062 C 39.765625 -12.570312 37.441406 -12.160156 34.980469 -12.160156 C 33.617188 -12.160156 32.25 -12.296875 30.882812 -12.570312 C 29.515625 -12.84375 28.148438 -13.390625 26.917969 -14.210938 C 24.1875 -15.714844 22.136719 -17.628906 20.90625 -19.949219 C 19.675781 -22.273438 19.128906 -24.597656 19.128906 -27.054688 C 19.128906 -28.832031 19.402344 -30.472656 19.949219 -31.976562 C 20.496094 -33.34375 21.453125 -34.570312 22.546875 -35.390625 C 24.1875 -36.757812 26.101562 -37.441406 28.285156 -37.441406 C 29.378906 -37.441406 30.335938 -37.167969 31.292969 -36.757812 C 32.25 -36.347656 33.070312 -35.664062 33.753906 -34.707031 C 33.753906 -34.433594 33.890625 -34.164062 34.164062 -33.617188 C 34.296875 -33.070312 34.433594 -32.523438 34.570312 -31.976562 C 34.707031 -31.429688 34.84375 -30.882812 34.980469 -30.472656 L 35.117188 -29.789062 C 35.390625 -28.558594 36.074219 -28.011719 37.441406 -28.011719 C 37.714844 -28.011719 38.125 -28.148438 38.671875 -28.421875 L 48.921875 -35.253906 C 49.601562 -35.664062 50.011719 -36.347656 50.011719 -37.167969 C 50.011719 -37.988281 49.601562 -38.535156 49.058594 -38.945312 C 47.144531 -40.3125 46.050781 -41.132812 45.777344 -41.40625 C 45.367188 -41.679688 45.09375 -41.8125 45.09375 -42.085938 C 43.042969 -45.09375 40.585938 -47.417969 37.578125 -48.785156 C 34.570312 -50.148438 31.429688 -50.96875 28.285156 -50.96875 C 25.417969 -50.96875 22.683594 -50.421875 19.949219 -49.464844 C 17.21875 -48.375 14.894531 -46.871094 12.707031 -44.957031 C 10.523438 -43.042969 8.882812 -40.585938 7.652344 -37.851562 C 6.285156 -34.980469 5.738281 -31.839844 5.738281 -28.285156 C 5.738281 -23.914062 6.558594 -20.085938 8.199219 -16.535156 C 9.839844 -12.980469 12.160156 -9.976562 14.894531 -7.515625 C 17.628906 -5.054688 20.90625 -3.144531 24.460938 -1.777344 C 28.011719 -0.410156 31.566406 0.273438 35.390625 0.273438 Z M 35.390625 0.273438 "/></g></g></g><g fill="#737373" fill-opacity="1"><g transform="translate(85.865622, 539.843739)"><g><path d="M 35.664062 0 C 39.355469 0 42.90625 -0.683594 46.1875 -2.050781 C 49.464844 -3.417969 52.199219 -5.464844 54.660156 -7.925781 C 57.117188 -10.386719 59.03125 -13.253906 60.398438 -16.535156 C 61.765625 -19.8125 62.585938 -23.230469 62.585938 -27.054688 L 62.585938 -80.894531 C 62.585938 -80.894531 62.585938 -81.03125 62.585938 -81.167969 C 62.585938 -81.167969 62.722656 -81.304688 62.722656 -81.578125 L 64.226562 -85.679688 C 64.5 -86.363281 64.363281 -87.046875 63.953125 -87.726562 C 63.40625 -88.410156 62.859375 -88.820312 62.039062 -88.820312 L 49.601562 -88.820312 C 48.785156 -88.820312 48.238281 -88.546875 47.828125 -88.136719 C 47.417969 -87.589844 47.28125 -87.046875 47.28125 -86.5 C 47.28125 -86.089844 47.28125 -85.816406 47.417969 -85.679688 L 48.785156 -81.578125 C 48.785156 -81.304688 48.921875 -81.167969 48.921875 -80.894531 L 48.921875 -27.054688 C 48.921875 -23.230469 47.554688 -20.085938 45.09375 -17.492188 C 42.496094 -14.894531 39.355469 -13.664062 35.664062 -13.664062 C 31.839844 -13.664062 28.695312 -14.894531 26.101562 -17.492188 C 23.503906 -20.085938 22.273438 -23.230469 22.273438 -27.054688 L 22.273438 -80.894531 C 22.273438 -81.167969 22.273438 -81.304688 22.410156 -81.578125 L 23.914062 -85.679688 C 24.1875 -86.363281 24.050781 -87.046875 23.503906 -87.726562 C 22.957031 -88.410156 22.410156 -88.820312 21.726562 -88.820312 L 9.15625 -88.820312 C 8.335938 -88.820312 7.789062 -88.546875 7.378906 -88.136719 C 6.96875 -87.589844 6.832031 -87.046875 6.832031 -86.5 C 6.832031 -86.089844 6.832031 -85.816406 6.96875 -85.679688 L 8.472656 -81.578125 C 8.472656 -81.304688 8.472656 -81.167969 8.472656 -81.167969 C 8.472656 -81.03125 8.609375 -80.894531 8.609375 -80.894531 L 8.609375 -27.054688 C 8.609375 -23.230469 9.292969 -19.8125 10.660156 -16.535156 C 12.023438 -13.253906 14.074219 -10.386719 16.535156 -7.925781 C 18.992188 -5.464844 21.863281 -3.417969 25.144531 -2.050781 C 28.421875 -0.683594 31.839844 0 35.664062 0 Z M 35.664062 0 "/></g></g></g><g fill="#737373" fill-opacity="1"><g transform="translate(157.058713, 539.843739)"><g><path d="M 9.15625 0 L 21.726562 0 C 22.273438 0 22.820312 -0.136719 23.367188 -0.683594 C 23.777344 -1.09375 24.050781 -1.640625 24.050781 -2.460938 C 24.050781 -2.734375 23.914062 -2.871094 23.914062 -3.144531 L 22.410156 -7.242188 C 22.273438 -7.378906 22.273438 -7.652344 22.273438 -7.925781 L 22.273438 -24.050781 C 22.273438 -24.597656 22.410156 -25.144531 22.820312 -25.691406 C 23.230469 -26.101562 23.777344 -26.375 24.460938 -26.375 C 30.0625 -26.511719 34.84375 -27.601562 38.945312 -29.515625 C 42.90625 -31.429688 46.1875 -33.753906 48.785156 -36.757812 C 51.242188 -39.765625 53.15625 -43.042969 54.386719 -46.597656 C 55.480469 -50.148438 56.164062 -53.839844 56.164062 -57.527344 C 56.164062 -61.355469 55.34375 -65.179688 53.976562 -69.007812 C 52.609375 -72.832031 50.421875 -76.113281 47.691406 -79.121094 C 44.957031 -81.988281 41.40625 -84.3125 37.167969 -86.089844 C 32.933594 -87.863281 28.011719 -88.820312 22.410156 -88.820312 L 9.15625 -88.820312 C 8.335938 -88.820312 7.789062 -88.546875 7.378906 -88.136719 C 6.96875 -87.589844 6.832031 -87.046875 6.832031 -86.5 C 6.832031 -86.089844 6.832031 -85.816406 6.96875 -85.679688 L 8.472656 -81.578125 C 8.472656 -81.304688 8.472656 -81.167969 8.472656 -81.167969 C 8.472656 -81.03125 8.609375 -80.894531 8.609375 -80.894531 L 8.609375 -7.925781 C 8.609375 -7.789062 8.472656 -7.652344 8.472656 -7.652344 C 8.472656 -7.515625 8.472656 -7.378906 8.472656 -7.242188 L 6.96875 -3.144531 C 6.695312 -2.324219 6.695312 -1.640625 7.242188 -0.957031 C 7.652344 -0.273438 8.335938 0 9.15625 0 Z M 24.734375 -40.039062 C 23.914062 -40.039062 23.367188 -40.175781 22.957031 -40.585938 C 22.410156 -40.996094 22.273438 -41.542969 22.273438 -42.359375 L 22.273438 -72.832031 C 22.273438 -73.378906 22.410156 -73.925781 22.957031 -74.472656 C 23.367188 -74.882812 23.914062 -75.15625 24.734375 -75.15625 C 27.738281 -74.882812 30.472656 -74.199219 32.796875 -72.832031 C 34.980469 -71.46875 36.894531 -69.964844 38.261719 -68.1875 C 39.628906 -66.410156 40.722656 -64.5 41.40625 -62.585938 C 42.085938 -60.671875 42.496094 -58.894531 42.496094 -57.527344 C 42.496094 -56.027344 42.085938 -54.25 41.40625 -52.335938 C 40.722656 -50.421875 39.628906 -48.511719 38.261719 -46.734375 C 36.894531 -44.957031 34.980469 -43.453125 32.796875 -42.085938 C 30.609375 -40.722656 27.875 -40.039062 24.734375 -40.039062 Z M 24.734375 -40.039062 "/></g></g></g><g fill="#737373" fill-opacity="1"><g transform="translate(217.320042, 539.843739)"><g><path d="M 9.15625 0 L 21.726562 0 C 22.273438 0 22.820312 -0.136719 23.367188 -0.683594 C 23.777344 -1.09375 24.050781 -1.640625 24.050781 -2.460938 C 24.050781 -2.734375 23.914062 -2.871094 23.914062 -3.144531 L 22.410156 -7.242188 C 22.273438 -7.378906 22.273438 -7.652344 22.273438 -7.925781 L 22.273438 -24.050781 C 22.273438 -24.597656 22.410156 -25.144531 22.820312 -25.691406 C 23.230469 -26.101562 23.777344 -26.375 24.460938 -26.375 C 30.0625 -26.511719 34.84375 -27.601562 38.945312 -29.515625 C 42.90625 -31.429688 46.1875 -33.753906 48.785156 -36.757812 C 51.242188 -39.765625 53.15625 -43.042969 54.386719 -46.597656 C 55.480469 -50.148438 56.164062 -53.839844 56.164062 -57.527344 C 56.164062 -61.355469 55.34375 -65.179688 53.976562 -69.007812 C 52.609375 -72.832031 50.421875 -76.113281 47.691406 -79.121094 C 44.957031 -81.988281 41.40625 -84.3125 37.167969 -86.089844 C 32.933594 -87.863281 28.011719 -88.820312 22.410156 -88.820312 L 9.15625 -88.820312 C 8.335938 -88.820312 7.789062 -88.546875 7.378906 -88.136719 C 6.96875 -87.589844 6.832031 -87.046875 6.832031 -86.5 C 6.832031 -86.089844 6.832031 -85.816406 6.96875 -85.679688 L 8.472656 -81.578125 C 8.472656 -81.304688 8.472656 -81.167969 8.472656 -81.167969 C 8.472656 -81.03125 8.609375 -80.894531 8.609375 -80.894531 L 8.609375 -7.925781 C 8.609375 -7.789062 8.472656 -7.652344 8.472656 -7.652344 C 8.472656 -7.515625 8.472656 -7.378906 8.472656 -7.242188 L 6.96875 -3.144531 C 6.695312 -2.324219 6.695312 -1.640625 7.242188 -0.957031 C 7.652344 -0.273438 8.335938 0 9.15625 0 Z M 24.734375 -40.039062 C 23.914062 -40.039062 23.367188 -40.175781 22.957031 -40.585938 C 22.410156 -40.996094 22.273438 -41.542969 22.273438 -42.359375 L 22.273438 -72.832031 C 22.273438 -73.378906 22.410156 -73.925781 22.957031 -74.472656 C 23.367188 -74.882812 23.914062 -75.15625 24.734375 -75.15625 C 27.738281 -74.882812 30.472656 -74.199219 32.796875 -72.832031 C 34.980469 -71.46875 36.894531 -69.964844 38.261719 -68.1875 C 39.628906 -66.410156 40.722656 -64.5 41.40625 -62.585938 C 42.085938 -60.671875 42.496094 -58.894531 42.496094 -57.527344 C 42.496094 -56.027344 42.085938 -54.25 41.40625 -52.335938 C 40.722656 -50.421875 39.628906 -48.511719 38.261719 -46.734375 C 36.894531 -44.957031 34.980469 -43.453125 32.796875 -42.085938 C 30.609375 -40.722656 27.875 -40.039062 24.734375 -40.039062 Z M 24.734375 -40.039062 "/></g></g></g><g fill="#737373" fill-opacity="1"><g transform="translate(277.581372, 539.843739)"><g><path d="M 8.609375 -0.136719 L 8.609375 0 L 51.789062 0 C 52.335938 0 52.882812 -0.136719 53.429688 -0.683594 C 53.839844 -1.09375 54.113281 -1.640625 54.113281 -2.324219 L 54.113281 -13.253906 C 54.113281 -14.621094 53.292969 -15.441406 51.925781 -15.441406 C 51.515625 -15.441406 51.242188 -15.304688 51.105469 -15.304688 L 46.871094 -13.800781 C 46.597656 -13.664062 46.324219 -13.664062 46.050781 -13.664062 L 24.597656 -13.664062 C 23.777344 -13.664062 23.230469 -13.800781 22.820312 -14.347656 C 22.410156 -14.757812 22.273438 -15.304688 22.273438 -15.988281 L 22.273438 -80.894531 C 22.273438 -81.167969 22.273438 -81.304688 22.410156 -81.578125 L 23.914062 -85.679688 C 24.1875 -86.363281 24.050781 -87.046875 23.503906 -87.726562 C 22.957031 -88.410156 22.410156 -88.820312 21.726562 -88.820312 L 9.15625 -88.820312 C 8.335938 -88.820312 7.789062 -88.546875 7.378906 -88.136719 C 6.96875 -87.589844 6.832031 -87.046875 6.832031 -86.5 C 6.832031 -86.089844 6.832031 -85.816406 6.96875 -85.679688 L 8.472656 -81.578125 C 8.472656 -81.304688 8.472656 -81.167969 8.472656 -81.167969 C 8.472656 -81.03125 8.609375 -80.894531 8.609375 -80.894531 L 8.609375 -7.925781 C 8.609375 -7.789062 8.472656 -7.652344 8.472656 -7.652344 C 8.472656 -7.515625 8.472656 -7.378906 8.472656 -7.242188 L 6.96875 -3.144531 C 6.695312 -2.324219 6.832031 -1.777344 7.105469 -1.230469 C 7.378906 -0.683594 7.789062 -0.273438 8.609375 -0.136719 Z M 8.609375 -0.136719 "/></g></g></g><g fill="#737373" fill-opacity="1"><g transform="translate(335.793004, 539.843739)"><g><path d="M 28.832031 0 L 41.40625 0 C 42.085938 0 42.632812 -0.136719 43.042969 -0.683594 C 43.453125 -1.09375 43.726562 -1.640625 43.726562 -2.460938 C 43.726562 -2.734375 43.589844 -3.007812 43.589844 -3.28125 L 42.085938 -7.652344 C 42.085938 -7.789062 41.949219 -7.925781 41.949219 -8.0625 C 41.949219 -8.0625 41.949219 -8.199219 41.949219 -8.472656 L 41.8125 -42.222656 C 41.8125 -44.410156 42.359375 -46.734375 43.726562 -49.058594 L 62.175781 -80.894531 C 62.449219 -81.167969 62.585938 -81.304688 62.722656 -81.578125 L 66.683594 -85.679688 C 67.230469 -86.226562 67.503906 -86.910156 67.503906 -87.589844 C 67.503906 -88.410156 67.09375 -88.820312 66.273438 -88.820312 L 53.15625 -88.820312 C 52.335938 -88.820312 51.515625 -88.410156 50.695312 -87.726562 C 49.875 -87.046875 49.332031 -86.363281 49.195312 -85.679688 L 48.238281 -81.578125 C 48.238281 -81.304688 48.101562 -81.03125 47.964844 -80.894531 C 47.964844 -80.757812 47.554688 -80.210938 47.007812 -79.257812 C 46.460938 -78.164062 45.640625 -76.796875 44.683594 -75.15625 C 43.726562 -73.515625 42.632812 -71.46875 41.269531 -69.28125 C 39.902344 -67.09375 38.535156 -64.632812 37.167969 -62.039062 C 36.621094 -61.21875 35.9375 -60.945312 35.117188 -60.945312 C 34.296875 -60.945312 33.617188 -61.21875 33.207031 -62.039062 C 30.0625 -67.230469 27.464844 -71.742188 25.554688 -75.292969 C 23.503906 -78.847656 22.410156 -80.621094 22.273438 -80.894531 C 22 -81.03125 22 -81.304688 22 -81.578125 L 21.179688 -85.679688 C 20.90625 -86.363281 20.359375 -87.046875 19.539062 -87.726562 C 18.722656 -88.410156 17.902344 -88.820312 17.082031 -88.820312 L 4.097656 -88.820312 C 3.144531 -88.820312 2.734375 -88.410156 2.734375 -87.589844 C 2.734375 -86.910156 3.007812 -86.226562 3.691406 -85.679688 L 7.515625 -81.578125 C 7.652344 -81.304688 7.789062 -81.167969 7.789062 -81.167969 C 7.789062 -81.03125 7.925781 -80.894531 8.0625 -80.894531 C 8.0625 -80.621094 8.609375 -79.667969 9.703125 -77.890625 C 10.660156 -76.113281 12.023438 -73.789062 13.664062 -70.785156 C 15.304688 -67.777344 17.355469 -64.5 19.539062 -60.808594 C 21.726562 -56.980469 23.914062 -53.15625 26.375 -49.058594 C 27.464844 -46.871094 28.148438 -44.683594 28.148438 -42.222656 L 28.285156 -8.472656 C 28.285156 -8.0625 28.148438 -7.789062 28.148438 -7.652344 L 26.644531 -3.28125 C 26.375 -2.460938 26.375 -1.640625 26.917969 -0.957031 C 27.464844 -0.273438 28.011719 0 28.832031 0 Z M 28.832031 0 "/></g></g></g><g fill="#737373" fill-opacity="1"><g transform="translate(406.029562, 539.843739)"><g/></g></g><g fill="#737373" fill-opacity="1"><g transform="translate(447.02366, 539.843739)"><g><path d="M 9.15625 0 L 21.726562 0 C 22.273438 0 22.820312 -0.136719 23.367188 -0.683594 C 23.777344 -1.09375 24.050781 -1.640625 24.050781 -2.460938 C 24.050781 -2.734375 23.914062 -2.871094 23.914062 -3.144531 L 22.410156 -7.242188 C 22.273438 -7.378906 22.273438 -7.652344 22.273438 -7.925781 L 22.273438 -24.050781 C 22.273438 -24.597656 22.410156 -25.144531 22.820312 -25.691406 C 23.230469 -26.101562 23.777344 -26.375 24.460938 -26.375 C 30.0625 -26.511719 34.84375 -27.601562 38.945312 -29.515625 C 42.90625 -31.429688 46.1875 -33.753906 48.785156 -36.757812 C 51.242188 -39.765625 53.15625 -43.042969 54.386719 -46.597656 C 55.480469 -50.148438 56.164062 -53.839844 56.164062 -57.527344 C 56.164062 -61.355469 55.34375 -65.179688 53.976562 -69.007812 C 52.609375 -72.832031 50.421875 -76.113281 47.691406 -79.121094 C 44.957031 -81.988281 41.40625 -84.3125 37.167969 -86.089844 C 32.933594 -87.863281 28.011719 -88.820312 22.410156 -88.820312 L 9.15625 -88.820312 C 8.335938 -88.820312 7.789062 -88.546875 7.378906 -88.136719 C 6.96875 -87.589844 6.832031 -87.046875 6.832031 -86.5 C 6.832031 -86.089844 6.832031 -85.816406 6.96875 -85.679688 L 8.472656 -81.578125 C 8.472656 -81.304688 8.472656 -81.167969 8.472656 -81.167969 C 8.472656 -81.03125 8.609375 -80.894531 8.609375 -80.894531 L 8.609375 -7.925781 C 8.609375 -7.789062 8.472656 -7.652344 8.472656 -7.652344 C 8.472656 -7.515625 8.472656 -7.378906 8.472656 -7.242188 L 6.96875 -3.144531 C 6.695312 -2.324219 6.695312 -1.640625 7.242188 -0.957031 C 7.652344 -0.273438 8.335938 0 9.15625 0 Z M 24.734375 -40.039062 C 23.914062 -40.039062 23.367188 -40.175781 22.957031 -40.585938 C 22.410156 -40.996094 22.273438 -41.542969 22.273438 -42.359375 L 22.273438 -72.832031 C 22.273438 -73.378906 22.410156 -73.925781 22.957031 -74.472656 C 23.367188 -74.882812 23.914062 -75.15625 24.734375 -75.15625 C 27.738281 -74.882812 30.472656 -74.199219 32.796875 -72.832031 C 34.980469 -71.46875 36.894531 -69.964844 38.261719 -68.1875 C 39.628906 -66.410156 40.722656 -64.5 41.40625 -62.585938 C 42.085938 -60.671875 42.496094 -58.894531 42.496094 -57.527344 C 42.496094 -56.027344 42.085938 -54.25 41.40625 -52.335938 C 40.722656 -50.421875 39.628906 -48.511719 38.261719 -46.734375 C 36.894531 -44.957031 34.980469 -43.453125 32.796875 -42.085938 C 30.609375 -40.722656 27.875 -40.039062 24.734375 -40.039062 Z M 24.734375 -40.039062 "/></g></g></g><g fill="#737373" fill-opacity="1"><g transform="translate(507.285013, 539.843739)"><g><path d="M 4.507812 -18.859375 L 17.082031 -18.859375 C 17.765625 -18.859375 18.449219 -19.128906 19.128906 -19.8125 C 19.8125 -20.359375 20.085938 -21.042969 20.085938 -21.863281 L 19.675781 -25.964844 C 19.675781 -26.238281 19.675781 -26.511719 19.8125 -26.78125 C 19.8125 -26.78125 19.949219 -27.464844 20.222656 -28.695312 C 20.496094 -29.925781 21.042969 -31.566406 21.589844 -33.617188 C 21.726562 -34.164062 22 -34.570312 22.546875 -34.84375 C 22.957031 -35.117188 23.503906 -35.390625 24.050781 -35.390625 L 24.324219 -35.390625 L 36.347656 -33.070312 C 37.167969 -32.796875 37.851562 -32.25 38.125 -31.429688 L 39.355469 -26.644531 C 39.355469 -26.375 39.355469 -26.238281 39.355469 -26.238281 C 39.355469 -26.238281 39.355469 -26.101562 39.355469 -25.964844 L 39.082031 -21.863281 C 38.945312 -21.042969 39.21875 -20.359375 39.902344 -19.8125 C 40.449219 -19.128906 41.269531 -18.859375 42.085938 -18.859375 L 54.523438 -18.859375 C 55.617188 -18.859375 56.300781 -19.402344 56.300781 -20.496094 C 56.300781 -20.90625 56.164062 -21.316406 55.890625 -21.863281 L 53.292969 -25.964844 C 53.019531 -26.238281 53.019531 -26.511719 53.019531 -26.78125 L 38.945312 -79.257812 C 38.808594 -79.53125 38.671875 -79.9375 38.671875 -80.210938 C 38.671875 -80.484375 38.671875 -80.757812 38.671875 -81.167969 C 38.671875 -81.988281 38.808594 -83.082031 39.355469 -84.175781 L 40.039062 -85.679688 C 40.3125 -86.363281 40.175781 -87.046875 39.628906 -87.726562 C 39.082031 -88.410156 38.261719 -88.820312 37.304688 -88.820312 L 21.726562 -88.820312 C 20.90625 -88.820312 20.222656 -88.546875 19.675781 -88.136719 C 19.128906 -87.589844 18.859375 -87.046875 18.859375 -86.5 C 18.859375 -86.089844 18.859375 -85.816406 18.992188 -85.679688 L 19.8125 -84.175781 C 20.085938 -83.355469 20.359375 -82.398438 20.359375 -81.304688 C 20.359375 -80.347656 20.222656 -79.667969 20.085938 -79.257812 C 17.355469 -69.144531 15.03125 -60.808594 13.390625 -54.523438 C 11.75 -48.101562 10.386719 -43.042969 9.429688 -39.492188 C 8.335938 -35.800781 7.652344 -33.207031 7.242188 -31.703125 C 6.832031 -30.0625 6.558594 -29.105469 6.421875 -28.558594 C 6.285156 -28.011719 6.285156 -27.738281 6.285156 -27.738281 C 6.285156 -27.738281 6.148438 -27.328125 6.011719 -26.78125 C 6.011719 -26.511719 5.875 -26.238281 5.738281 -25.964844 L 3.144531 -21.863281 C 2.871094 -21.316406 2.734375 -20.90625 2.734375 -20.496094 C 2.734375 -19.402344 3.28125 -18.859375 4.507812 -18.859375 Z M 30.609375 -48.101562 L 30.199219 -48.101562 L 28.148438 -48.511719 C 26.78125 -48.785156 26.238281 -49.464844 26.238281 -50.695312 C 26.238281 -50.96875 26.238281 -51.105469 26.375 -51.378906 C 26.917969 -53.566406 27.464844 -55.480469 27.875 -56.980469 C 28.148438 -58.484375 28.421875 -59.304688 28.421875 -59.441406 C 28.558594 -59.851562 28.96875 -60.125 29.515625 -60.125 C 30.0625 -60.125 30.472656 -59.851562 30.609375 -59.441406 L 32.796875 -50.96875 C 33.070312 -50.148438 32.933594 -49.464844 32.386719 -48.921875 C 31.839844 -48.375 31.292969 -48.101562 30.609375 -48.101562 Z M 5.054688 0 L 53.976562 0 C 54.660156 0 55.207031 -0.136719 55.617188 -0.683594 C 56.027344 -1.09375 56.300781 -1.640625 56.300781 -2.324219 L 56.300781 -8.335938 C 56.300781 -8.882812 56.027344 -9.429688 55.617188 -9.976562 C 55.207031 -10.386719 54.660156 -10.660156 53.976562 -10.660156 L 5.054688 -10.660156 C 4.371094 -10.660156 3.824219 -10.386719 3.417969 -9.976562 C 2.871094 -9.429688 2.734375 -8.882812 2.734375 -8.335938 L 2.734375 -2.324219 C 2.734375 -1.640625 2.871094 -1.09375 3.417969 -0.683594 C 3.824219 -0.136719 4.371094 0 5.054688 0 Z M 5.054688 0 "/></g></g></g><g fill="#737373" fill-opacity="1"><g transform="translate(566.316501, 539.843739)"><g><path d="M 9.15625 0 L 21.726562 0 C 22.273438 0 22.820312 -0.136719 23.367188 -0.683594 C 23.777344 -1.09375 24.050781 -1.640625 24.050781 -2.460938 C 24.050781 -2.734375 23.914062 -2.871094 23.914062 -3.144531 L 22.410156 -7.242188 C 22.273438 -7.378906 22.273438 -7.652344 22.273438 -7.925781 L 22.273438 -24.050781 C 22.273438 -24.597656 22.410156 -25.144531 22.820312 -25.691406 C 23.230469 -26.101562 23.777344 -26.375 24.460938 -26.375 C 30.0625 -26.511719 34.84375 -27.601562 38.945312 -29.515625 C 42.90625 -31.429688 46.1875 -33.753906 48.785156 -36.757812 C 51.242188 -39.765625 53.15625 -43.042969 54.386719 -46.597656 C 55.480469 -50.148438 56.164062 -53.839844 56.164062 -57.527344 C 56.164062 -61.355469 55.34375 -65.179688 53.976562 -69.007812 C 52.609375 -72.832031 50.421875 -76.113281 47.691406 -79.121094 C 44.957031 -81.988281 41.40625 -84.3125 37.167969 -86.089844 C 32.933594 -87.863281 28.011719 -88.820312 22.410156 -88.820312 L 9.15625 -88.820312 C 8.335938 -88.820312 7.789062 -88.546875 7.378906 -88.136719 C 6.96875 -87.589844 6.832031 -87.046875 6.832031 -86.5 C 6.832031 -86.089844 6.832031 -85.816406 6.96875 -85.679688 L 8.472656 -81.578125 C 8.472656 -81.304688 8.472656 -81.167969 8.472656 -81.167969 C 8.472656 -81.03125 8.609375 -80.894531 8.609375 -80.894531 L 8.609375 -7.925781 C 8.609375 -7.789062 8.472656 -7.652344 8.472656 -7.652344 C 8.472656 -7.515625 8.472656 -7.378906 8.472656 -7.242188 L 6.96875 -3.144531 C 6.695312 -2.324219 6.695312 -1.640625 7.242188 -0.957031 C 7.652344 -0.273438 8.335938 0 9.15625 0 Z M 24.734375 -40.039062 C 23.914062 -40.039062 23.367188 -40.175781 22.957031 -40.585938 C 22.410156 -40.996094 22.273438 -41.542969 22.273438 -42.359375 L 22.273438 -72.832031 C 22.273438 -73.378906 22.410156 -73.925781 22.957031 -74.472656 C 23.367188 -74.882812 23.914062 -75.15625 24.734375 -75.15625 C 27.738281 -74.882812 30.472656 -74.199219 32.796875 -72.832031 C 34.980469 -71.46875 36.894531 -69.964844 38.261719 -68.1875 C 39.628906 -66.410156 40.722656 -64.5 41.40625 -62.585938 C 42.085938 -60.671875 42.496094 -58.894531 42.496094 -57.527344 C 42.496094 -56.027344 42.085938 -54.25 41.40625 -52.335938 C 40.722656 -50.421875 39.628906 -48.511719 38.261719 -46.734375 C 36.894531 -44.957031 34.980469 -43.453125 32.796875 -42.085938 C 30.609375 -40.722656 27.875 -40.039062 24.734375 -40.039062 Z M 24.734375 -40.039062 "/></g></g></g><g fill="#737373" fill-opacity="1"><g transform="translate(626.577807, 539.843739)"><g><path d="M 32.25 -18.859375 L 55.890625 -18.859375 C 56.4375 -18.859375 56.980469 -18.992188 57.527344 -19.539062 C 57.9375 -19.949219 58.210938 -20.496094 58.210938 -21.179688 L 58.210938 -32.113281 C 58.210938 -33.480469 57.390625 -34.296875 56.027344 -34.296875 C 55.617188 -34.296875 55.34375 -34.164062 55.207031 -34.164062 L 50.96875 -32.660156 C 50.695312 -32.523438 50.421875 -32.523438 50.148438 -32.523438 L 24.597656 -32.523438 C 23.777344 -32.523438 23.230469 -32.660156 22.820312 -33.207031 C 22.410156 -33.617188 22.273438 -34.164062 22.273438 -34.84375 L 22.273438 -50.558594 C 22.273438 -51.105469 22.410156 -51.515625 22.820312 -51.925781 C 23.230469 -52.335938 23.777344 -52.609375 24.324219 -52.609375 L 41.132812 -52.609375 C 41.40625 -52.609375 41.679688 -52.472656 41.949219 -52.472656 L 46.050781 -50.96875 C 46.734375 -50.695312 47.417969 -50.695312 48.101562 -51.242188 C 48.648438 -51.652344 49.058594 -52.335938 49.058594 -53.15625 L 49.058594 -65.726562 C 49.058594 -67.230469 48.238281 -68.050781 46.871094 -68.050781 C 46.460938 -68.050781 46.1875 -67.914062 46.050781 -67.914062 L 41.949219 -66.410156 C 41.679688 -66.273438 41.40625 -66.273438 41.132812 -66.273438 L 24.324219 -66.273438 C 23.777344 -66.273438 23.230469 -66.410156 22.820312 -66.820312 C 22.410156 -67.230469 22.273438 -67.777344 22.273438 -68.324219 L 22.273438 -72.832031 C 22.273438 -73.378906 22.410156 -73.925781 22.820312 -74.472656 C 23.230469 -74.882812 23.777344 -75.15625 24.597656 -75.15625 L 50.148438 -75.15625 C 50.421875 -75.15625 50.695312 -75.019531 50.96875 -75.019531 L 55.207031 -73.515625 C 55.890625 -73.242188 56.574219 -73.242188 57.253906 -73.789062 C 57.800781 -74.199219 58.210938 -74.746094 58.210938 -75.566406 L 58.210938 -86.5 C 58.210938 -87.046875 57.9375 -87.589844 57.527344 -88.136719 C 56.980469 -88.546875 56.4375 -88.820312 55.890625 -88.820312 L 8.609375 -88.820312 L 8.609375 -88.683594 C 7.378906 -88.410156 6.832031 -87.589844 6.832031 -86.5 C 6.832031 -86.089844 6.832031 -85.816406 6.96875 -85.679688 L 8.472656 -81.578125 C 8.472656 -81.304688 8.472656 -81.167969 8.472656 -81.167969 C 8.472656 -81.03125 8.609375 -80.894531 8.609375 -80.894531 L 8.609375 -26.78125 C 8.609375 -26.644531 8.472656 -26.511719 8.472656 -26.511719 C 8.472656 -26.375 8.472656 -26.238281 8.472656 -26.101562 L 6.96875 -22 C 6.695312 -21.179688 6.832031 -20.632812 7.105469 -20.085938 C 7.378906 -19.539062 7.789062 -19.128906 8.609375 -18.992188 L 10.660156 -18.859375 C 12.023438 -18.859375 13.800781 -18.859375 15.988281 -18.859375 Z M 9.15625 0 L 55.890625 0 C 56.4375 0 56.980469 -0.136719 57.527344 -0.683594 C 57.9375 -1.09375 58.210938 -1.640625 58.210938 -2.324219 L 58.210938 -8.335938 C 58.210938 -8.882812 57.9375 -9.429688 57.527344 -9.976562 C 56.980469 -10.386719 56.4375 -10.660156 55.890625 -10.660156 L 9.15625 -10.660156 C 8.472656 -10.660156 7.925781 -10.386719 7.515625 -9.976562 C 6.96875 -9.429688 6.832031 -8.882812 6.832031 -8.335938 L 6.832031 -2.324219 C 6.832031 -1.640625 6.96875 -1.09375 7.515625 -0.683594 C 7.925781 -0.136719 8.472656 0 9.15625 0 Z M 9.15625 0 "/></g></g></g><g fill="#737373" fill-opacity="1"><g transform="translate(691.621804, 539.843739)"><g><path d="M 49.195312 15.441406 L 61.628906 15.441406 C 62.585938 15.441406 63.132812 15.03125 63.132812 14.074219 C 63.132812 13.390625 62.859375 12.84375 62.449219 12.296875 L 59.03125 8.199219 L 58.484375 7.378906 L 52.335938 -6.148438 C 50.558594 -9.976562 48.785156 -13.800781 46.871094 -17.902344 C 44.957031 -21.863281 43.316406 -25.28125 42.085938 -28.285156 C 41.40625 -29.515625 41.679688 -30.472656 42.90625 -31.15625 C 45.09375 -32.523438 47.007812 -34.433594 48.648438 -36.621094 C 50.285156 -38.808594 51.652344 -40.996094 52.746094 -43.453125 C 53.839844 -45.914062 54.796875 -48.375 55.34375 -50.832031 C 55.890625 -53.292969 56.164062 -55.480469 56.164062 -57.527344 C 56.164062 -61.355469 55.34375 -65.179688 53.976562 -69.007812 C 52.609375 -72.832031 50.421875 -76.113281 47.691406 -79.121094 C 44.957031 -81.988281 41.40625 -84.3125 37.167969 -86.089844 C 32.933594 -87.863281 28.011719 -88.820312 22.410156 -88.820312 L 9.15625 -88.820312 C 8.472656 -88.820312 7.925781 -88.546875 7.515625 -88.136719 C 6.96875 -87.589844 6.832031 -87.046875 6.832031 -86.363281 C 6.832031 -86.089844 6.832031 -85.816406 6.96875 -85.679688 L 8.472656 -81.578125 C 8.472656 -81.304688 8.609375 -81.167969 8.609375 -80.894531 L 8.609375 -7.925781 C 8.609375 -7.652344 8.472656 -7.378906 8.472656 -7.242188 L 6.96875 -3.144531 C 6.695312 -2.324219 6.695312 -1.640625 7.242188 -0.957031 C 7.789062 -0.273438 8.335938 0 9.15625 0 L 21.726562 0 C 22.410156 0 22.957031 -0.136719 23.367188 -0.683594 C 23.777344 -1.09375 24.050781 -1.640625 24.050781 -2.324219 C 24.050781 -2.597656 23.914062 -2.871094 23.914062 -3.144531 L 22.410156 -7.242188 C 22.410156 -7.378906 22.273438 -7.515625 22.273438 -7.652344 C 22.273438 -7.652344 22.273438 -7.789062 22.273438 -7.925781 L 22.273438 -24.050781 C 22.273438 -24.597656 22.410156 -25.144531 22.957031 -25.691406 C 23.367188 -26.101562 23.914062 -26.375 24.597656 -26.375 C 25.007812 -26.375 25.417969 -26.375 25.964844 -26.375 C 26.511719 -26.375 26.917969 -26.511719 27.464844 -26.511719 C 28.558594 -26.644531 29.242188 -26.238281 29.789062 -25.28125 L 44.820312 7.378906 C 44.957031 7.789062 45.09375 8.0625 45.09375 8.199219 L 45.503906 12.296875 C 45.503906 13.117188 45.914062 13.800781 46.734375 14.484375 C 47.554688 15.167969 48.375 15.441406 49.195312 15.441406 Z M 24.734375 -40.039062 C 23.914062 -40.039062 23.367188 -40.175781 22.957031 -40.585938 C 22.410156 -40.996094 22.273438 -41.542969 22.273438 -42.359375 L 22.273438 -72.832031 C 22.273438 -73.378906 22.410156 -73.925781 22.957031 -74.472656 C 23.367188 -74.882812 23.914062 -75.15625 24.734375 -75.15625 C 27.738281 -74.882812 30.472656 -74.199219 32.796875 -72.96875 C 34.980469 -71.605469 36.894531 -70.101562 38.261719 -68.324219 C 39.628906 -66.546875 40.722656 -64.769531 41.40625 -62.859375 C 42.085938 -60.945312 42.496094 -59.167969 42.496094 -57.800781 C 42.496094 -56.300781 42.085938 -54.523438 41.542969 -52.609375 C 40.859375 -50.558594 39.765625 -48.648438 38.398438 -46.871094 C 37.03125 -44.957031 35.117188 -43.453125 32.933594 -42.085938 C 30.746094 -40.722656 28.011719 -40.039062 24.734375 -40.039062 Z M 24.734375 -40.039062 "/></g></g></g><g fill="#c88769" fill-opacity="1"><g transform="translate(321.897107, 625.805409)"><g><path d="M 5.660156 0 L 13.433594 0 C 13.769531 0 14.109375 -0.0859375 14.445312 -0.421875 C 14.699219 -0.675781 14.867188 -1.015625 14.867188 -1.519531 C 14.867188 -1.691406 14.785156 -1.773438 14.785156 -1.941406 L 13.855469 -4.476562 C 13.769531 -4.5625 13.769531 -4.730469 13.769531 -4.898438 L 13.769531 -14.867188 C 13.769531 -15.207031 13.855469 -15.542969 14.109375 -15.882812 C 14.359375 -16.136719 14.699219 -16.304688 15.121094 -16.304688 C 18.585938 -16.386719 21.542969 -17.0625 24.074219 -18.246094 C 26.527344 -19.429688 28.554688 -20.867188 30.15625 -22.722656 C 31.679688 -24.582031 32.859375 -26.609375 33.621094 -28.804688 C 34.296875 -31.003906 34.71875 -33.285156 34.71875 -35.5625 C 34.71875 -37.929688 34.210938 -40.296875 33.367188 -42.660156 C 32.523438 -45.027344 31.171875 -47.054688 29.480469 -48.910156 C 27.792969 -50.6875 25.597656 -52.121094 22.976562 -53.21875 C 20.359375 -54.316406 17.316406 -54.910156 13.855469 -54.910156 L 5.660156 -54.910156 C 5.152344 -54.910156 4.816406 -54.742188 4.5625 -54.488281 C 4.308594 -54.148438 4.222656 -53.8125 4.222656 -53.472656 C 4.222656 -53.21875 4.222656 -53.050781 4.308594 -52.964844 L 5.238281 -50.433594 C 5.238281 -50.261719 5.238281 -50.179688 5.238281 -50.179688 C 5.238281 -50.09375 5.320312 -50.007812 5.320312 -50.007812 L 5.320312 -4.898438 C 5.320312 -4.816406 5.238281 -4.730469 5.238281 -4.730469 C 5.238281 -4.644531 5.238281 -4.5625 5.238281 -4.476562 L 4.308594 -1.941406 C 4.140625 -1.4375 4.140625 -1.015625 4.476562 -0.589844 C 4.730469 -0.167969 5.152344 0 5.660156 0 Z M 15.289062 -24.75 C 14.785156 -24.75 14.445312 -24.835938 14.191406 -25.089844 C 13.855469 -25.34375 13.769531 -25.679688 13.769531 -26.1875 L 13.769531 -45.027344 C 13.769531 -45.363281 13.855469 -45.703125 14.191406 -46.039062 C 14.445312 -46.292969 14.785156 -46.460938 15.289062 -46.460938 C 17.148438 -46.292969 18.839844 -45.871094 20.273438 -45.027344 C 21.625 -44.179688 22.808594 -43.25 23.652344 -42.152344 C 24.496094 -41.054688 25.175781 -39.871094 25.597656 -38.691406 C 26.019531 -37.507812 26.273438 -36.410156 26.273438 -35.5625 C 26.273438 -34.636719 26.019531 -33.535156 25.597656 -32.355469 C 25.175781 -31.171875 24.496094 -29.988281 23.652344 -28.890625 C 22.808594 -27.792969 21.625 -26.863281 20.273438 -26.019531 C 18.921875 -25.175781 17.234375 -24.75 15.289062 -24.75 Z M 15.289062 -24.75 "/></g></g></g><g fill="#c88769" fill-opacity="1"><g transform="translate(359.146988, 625.805409)"><g><path d="M 2.789062 -11.65625 L 10.558594 -11.65625 C 10.980469 -11.65625 11.402344 -11.828125 11.828125 -12.25 C 12.25 -12.585938 12.417969 -13.007812 12.417969 -13.515625 L 12.164062 -16.050781 C 12.164062 -16.21875 12.164062 -16.386719 12.25 -16.558594 C 12.25 -16.558594 12.332031 -16.980469 12.503906 -17.738281 C 12.671875 -18.5 13.007812 -19.515625 13.347656 -20.78125 C 13.433594 -21.117188 13.601562 -21.371094 13.9375 -21.542969 C 14.191406 -21.710938 14.53125 -21.878906 14.867188 -21.878906 L 15.035156 -21.878906 L 22.46875 -20.441406 C 22.976562 -20.273438 23.398438 -19.9375 23.570312 -19.429688 L 24.328125 -16.472656 C 24.328125 -16.304688 24.328125 -16.21875 24.328125 -16.21875 C 24.328125 -16.21875 24.328125 -16.136719 24.328125 -16.050781 L 24.160156 -13.515625 C 24.074219 -13.007812 24.246094 -12.585938 24.667969 -12.25 C 25.003906 -11.828125 25.511719 -11.65625 26.019531 -11.65625 L 33.707031 -11.65625 C 34.382812 -11.65625 34.804688 -11.996094 34.804688 -12.671875 C 34.804688 -12.925781 34.71875 -13.179688 34.550781 -13.515625 L 32.945312 -16.050781 C 32.777344 -16.21875 32.777344 -16.386719 32.777344 -16.558594 L 24.074219 -48.996094 C 23.992188 -49.164062 23.90625 -49.417969 23.90625 -49.585938 C 23.90625 -49.757812 23.90625 -49.925781 23.90625 -50.179688 C 23.90625 -50.6875 23.992188 -51.363281 24.328125 -52.039062 L 24.75 -52.964844 C 24.921875 -53.390625 24.835938 -53.8125 24.496094 -54.234375 C 24.160156 -54.65625 23.652344 -54.910156 23.0625 -54.910156 L 13.433594 -54.910156 C 12.925781 -54.910156 12.503906 -54.742188 12.164062 -54.488281 C 11.828125 -54.148438 11.65625 -53.8125 11.65625 -53.472656 C 11.65625 -53.21875 11.65625 -53.050781 11.742188 -52.964844 L 12.25 -52.039062 C 12.417969 -51.53125 12.585938 -50.9375 12.585938 -50.261719 C 12.585938 -49.671875 12.503906 -49.25 12.417969 -48.996094 C 10.726562 -42.746094 9.292969 -37.589844 8.277344 -33.707031 C 7.265625 -29.734375 6.421875 -26.609375 5.828125 -24.414062 C 5.152344 -22.132812 4.730469 -20.527344 4.476562 -19.597656 C 4.222656 -18.585938 4.054688 -17.992188 3.96875 -17.65625 C 3.886719 -17.316406 3.886719 -17.148438 3.886719 -17.148438 C 3.886719 -17.148438 3.800781 -16.894531 3.71875 -16.558594 C 3.71875 -16.386719 3.632812 -16.21875 3.546875 -16.050781 L 1.941406 -13.515625 C 1.773438 -13.179688 1.691406 -12.925781 1.691406 -12.671875 C 1.691406 -11.996094 2.027344 -11.65625 2.789062 -11.65625 Z M 18.921875 -29.734375 L 18.667969 -29.734375 L 17.402344 -29.988281 C 16.558594 -30.15625 16.21875 -30.582031 16.21875 -31.339844 C 16.21875 -31.507812 16.21875 -31.59375 16.304688 -31.761719 C 16.640625 -33.113281 16.980469 -34.296875 17.234375 -35.226562 C 17.402344 -36.15625 17.570312 -36.664062 17.570312 -36.746094 C 17.65625 -37 17.910156 -37.167969 18.246094 -37.167969 C 18.585938 -37.167969 18.839844 -37 18.921875 -36.746094 L 20.273438 -31.507812 C 20.441406 -31.003906 20.359375 -30.582031 20.019531 -30.242188 C 19.683594 -29.90625 19.34375 -29.734375 18.921875 -29.734375 Z M 3.125 0 L 33.367188 0 C 33.789062 0 34.128906 -0.0859375 34.382812 -0.421875 C 34.636719 -0.675781 34.804688 -1.015625 34.804688 -1.4375 L 34.804688 -5.152344 C 34.804688 -5.492188 34.636719 -5.828125 34.382812 -6.167969 C 34.128906 -6.421875 33.789062 -6.589844 33.367188 -6.589844 L 3.125 -6.589844 C 2.703125 -6.589844 2.367188 -6.421875 2.113281 -6.167969 C 1.773438 -5.828125 1.691406 -5.492188 1.691406 -5.152344 L 1.691406 -1.4375 C 1.691406 -1.015625 1.773438 -0.675781 2.113281 -0.421875 C 2.367188 -0.0859375 2.703125 0 3.125 0 Z M 3.125 0 "/></g></g></g><g fill="#c88769" fill-opacity="1"><g transform="translate(395.636671, 625.805409)"><g><path d="M 5.660156 0 L 13.433594 0 C 13.769531 0 14.109375 -0.0859375 14.445312 -0.421875 C 14.699219 -0.675781 14.867188 -1.015625 14.867188 -1.519531 C 14.867188 -1.691406 14.785156 -1.773438 14.785156 -1.941406 L 13.855469 -4.476562 C 13.769531 -4.5625 13.769531 -4.730469 13.769531 -4.898438 L 13.769531 -14.867188 C 13.769531 -15.207031 13.855469 -15.542969 14.109375 -15.882812 C 14.359375 -16.136719 14.699219 -16.304688 15.121094 -16.304688 C 18.585938 -16.386719 21.542969 -17.0625 24.074219 -18.246094 C 26.527344 -19.429688 28.554688 -20.867188 30.15625 -22.722656 C 31.679688 -24.582031 32.859375 -26.609375 33.621094 -28.804688 C 34.296875 -31.003906 34.71875 -33.285156 34.71875 -35.5625 C 34.71875 -37.929688 34.210938 -40.296875 33.367188 -42.660156 C 32.523438 -45.027344 31.171875 -47.054688 29.480469 -48.910156 C 27.792969 -50.6875 25.597656 -52.121094 22.976562 -53.21875 C 20.359375 -54.316406 17.316406 -54.910156 13.855469 -54.910156 L 5.660156 -54.910156 C 5.152344 -54.910156 4.816406 -54.742188 4.5625 -54.488281 C 4.308594 -54.148438 4.222656 -53.8125 4.222656 -53.472656 C 4.222656 -53.21875 4.222656 -53.050781 4.308594 -52.964844 L 5.238281 -50.433594 C 5.238281 -50.261719 5.238281 -50.179688 5.238281 -50.179688 C 5.238281 -50.09375 5.320312 -50.007812 5.320312 -50.007812 L 5.320312 -4.898438 C 5.320312 -4.816406 5.238281 -4.730469 5.238281 -4.730469 C 5.238281 -4.644531 5.238281 -4.5625 5.238281 -4.476562 L 4.308594 -1.941406 C 4.140625 -1.4375 4.140625 -1.015625 4.476562 -0.589844 C 4.730469 -0.167969 5.152344 0 5.660156 0 Z M 15.289062 -24.75 C 14.785156 -24.75 14.445312 -24.835938 14.191406 -25.089844 C 13.855469 -25.34375 13.769531 -25.679688 13.769531 -26.1875 L 13.769531 -45.027344 C 13.769531 -45.363281 13.855469 -45.703125 14.191406 -46.039062 C 14.445312 -46.292969 14.785156 -46.460938 15.289062 -46.460938 C 17.148438 -46.292969 18.839844 -45.871094 20.273438 -45.027344 C 21.625 -44.179688 22.808594 -43.25 23.652344 -42.152344 C 24.496094 -41.054688 25.175781 -39.871094 25.597656 -38.691406 C 26.019531 -37.507812 26.273438 -36.410156 26.273438 -35.5625 C 26.273438 -34.636719 26.019531 -33.535156 25.597656 -32.355469 C 25.175781 -31.171875 24.496094 -29.988281 23.652344 -28.890625 C 22.808594 -27.792969 21.625 -26.863281 20.273438 -26.019531 C 18.921875 -25.175781 17.234375 -24.75 15.289062 -24.75 Z M 15.289062 -24.75 "/></g></g></g><g fill="#c88769" fill-opacity="1"><g transform="translate(432.886551, 625.805409)"><g><path d="M 19.9375 -11.65625 L 34.550781 -11.65625 C 34.886719 -11.65625 35.226562 -11.742188 35.5625 -12.078125 C 35.816406 -12.332031 35.988281 -12.671875 35.988281 -13.09375 L 35.988281 -19.851562 C 35.988281 -20.695312 35.480469 -21.203125 34.636719 -21.203125 C 34.382812 -21.203125 34.210938 -21.117188 34.128906 -21.117188 L 31.507812 -20.191406 C 31.339844 -20.105469 31.171875 -20.105469 31.003906 -20.105469 L 15.207031 -20.105469 C 14.699219 -20.105469 14.359375 -20.191406 14.109375 -20.527344 C 13.855469 -20.78125 13.769531 -21.117188 13.769531 -21.542969 L 13.769531 -31.257812 C 13.769531 -31.59375 13.855469 -31.847656 14.109375 -32.101562 C 14.359375 -32.355469 14.699219 -32.523438 15.035156 -32.523438 L 25.425781 -32.523438 C 25.597656 -32.523438 25.765625 -32.4375 25.933594 -32.4375 L 28.46875 -31.507812 C 28.890625 -31.339844 29.3125 -31.339844 29.734375 -31.679688 C 30.074219 -31.933594 30.328125 -32.355469 30.328125 -32.859375 L 30.328125 -40.632812 C 30.328125 -41.5625 29.820312 -42.070312 28.976562 -42.070312 C 28.722656 -42.070312 28.554688 -41.984375 28.46875 -41.984375 L 25.933594 -41.054688 C 25.765625 -40.972656 25.597656 -40.972656 25.425781 -40.972656 L 15.035156 -40.972656 C 14.699219 -40.972656 14.359375 -41.054688 14.109375 -41.308594 C 13.855469 -41.5625 13.769531 -41.898438 13.769531 -42.238281 L 13.769531 -45.027344 C 13.769531 -45.363281 13.855469 -45.703125 14.109375 -46.039062 C 14.359375 -46.292969 14.699219 -46.460938 15.207031 -46.460938 L 31.003906 -46.460938 C 31.171875 -46.460938 31.339844 -46.378906 31.507812 -46.378906 L 34.128906 -45.449219 C 34.550781 -45.277344 34.972656 -45.277344 35.394531 -45.617188 C 35.734375 -45.871094 35.988281 -46.207031 35.988281 -46.714844 L 35.988281 -53.472656 C 35.988281 -53.8125 35.816406 -54.148438 35.5625 -54.488281 C 35.226562 -54.742188 34.886719 -54.910156 34.550781 -54.910156 L 5.320312 -54.910156 L 5.320312 -54.824219 C 4.5625 -54.65625 4.222656 -54.148438 4.222656 -53.472656 C 4.222656 -53.21875 4.222656 -53.050781 4.308594 -52.964844 L 5.238281 -50.433594 C 5.238281 -50.261719 5.238281 -50.179688 5.238281 -50.179688 C 5.238281 -50.09375 5.320312 -50.007812 5.320312 -50.007812 L 5.320312 -16.558594 C 5.320312 -16.472656 5.238281 -16.386719 5.238281 -16.386719 C 5.238281 -16.304688 5.238281 -16.21875 5.238281 -16.136719 L 4.308594 -13.601562 C 4.140625 -13.09375 4.222656 -12.757812 4.394531 -12.417969 C 4.5625 -12.078125 4.816406 -11.828125 5.320312 -11.742188 L 6.589844 -11.65625 C 7.433594 -11.65625 8.53125 -11.65625 9.882812 -11.65625 Z M 5.660156 0 L 34.550781 0 C 34.886719 0 35.226562 -0.0859375 35.5625 -0.421875 C 35.816406 -0.675781 35.988281 -1.015625 35.988281 -1.4375 L 35.988281 -5.152344 C 35.988281 -5.492188 35.816406 -5.828125 35.5625 -6.167969 C 35.226562 -6.421875 34.886719 -6.589844 34.550781 -6.589844 L 5.660156 -6.589844 C 5.238281 -6.589844 4.898438 -6.421875 4.644531 -6.167969 C 4.308594 -5.828125 4.222656 -5.492188 4.222656 -5.152344 L 4.222656 -1.4375 C 4.222656 -1.015625 4.308594 -0.675781 4.644531 -0.421875 C 4.898438 -0.0859375 5.238281 0 5.660156 0 Z M 5.660156 0 "/></g></g></g><g fill="#c88769" fill-opacity="1"><g transform="translate(473.092803, 625.805409)"><g><path d="M 5.320312 -0.0859375 L 5.320312 0 L 32.015625 0 C 32.355469 0 32.691406 -0.0859375 33.03125 -0.421875 C 33.285156 -0.675781 33.453125 -1.015625 33.453125 -1.4375 L 33.453125 -8.195312 C 33.453125 -9.039062 32.945312 -9.546875 32.101562 -9.546875 C 31.847656 -9.546875 31.679688 -9.460938 31.59375 -9.460938 L 28.976562 -8.53125 C 28.804688 -8.449219 28.636719 -8.449219 28.46875 -8.449219 L 15.207031 -8.449219 C 14.699219 -8.449219 14.359375 -8.53125 14.109375 -8.871094 C 13.855469 -9.125 13.769531 -9.460938 13.769531 -9.882812 L 13.769531 -50.007812 C 13.769531 -50.179688 13.769531 -50.261719 13.855469 -50.433594 L 14.785156 -52.964844 C 14.953125 -53.390625 14.867188 -53.8125 14.53125 -54.234375 C 14.191406 -54.65625 13.855469 -54.910156 13.433594 -54.910156 L 5.660156 -54.910156 C 5.152344 -54.910156 4.816406 -54.742188 4.5625 -54.488281 C 4.308594 -54.148438 4.222656 -53.8125 4.222656 -53.472656 C 4.222656 -53.21875 4.222656 -53.050781 4.308594 -52.964844 L 5.238281 -50.433594 C 5.238281 -50.261719 5.238281 -50.179688 5.238281 -50.179688 C 5.238281 -50.09375 5.320312 -50.007812 5.320312 -50.007812 L 5.320312 -4.898438 C 5.320312 -4.816406 5.238281 -4.730469 5.238281 -4.730469 C 5.238281 -4.644531 5.238281 -4.5625 5.238281 -4.476562 L 4.308594 -1.941406 C 4.140625 -1.4375 4.222656 -1.097656 4.394531 -0.761719 C 4.5625 -0.421875 4.816406 -0.167969 5.320312 -0.0859375 Z M 5.320312 -0.0859375 "/></g></g></g><g fill="#c88769" fill-opacity="1"><g transform="translate(509.075699, 625.805409)"><g><path d="M 19.9375 -11.65625 L 34.550781 -11.65625 C 34.886719 -11.65625 35.226562 -11.742188 35.5625 -12.078125 C 35.816406 -12.332031 35.988281 -12.671875 35.988281 -13.09375 L 35.988281 -19.851562 C 35.988281 -20.695312 35.480469 -21.203125 34.636719 -21.203125 C 34.382812 -21.203125 34.210938 -21.117188 34.128906 -21.117188 L 31.507812 -20.191406 C 31.339844 -20.105469 31.171875 -20.105469 31.003906 -20.105469 L 15.207031 -20.105469 C 14.699219 -20.105469 14.359375 -20.191406 14.109375 -20.527344 C 13.855469 -20.78125 13.769531 -21.117188 13.769531 -21.542969 L 13.769531 -31.257812 C 13.769531 -31.59375 13.855469 -31.847656 14.109375 -32.101562 C 14.359375 -32.355469 14.699219 -32.523438 15.035156 -32.523438 L 25.425781 -32.523438 C 25.597656 -32.523438 25.765625 -32.4375 25.933594 -32.4375 L 28.46875 -31.507812 C 28.890625 -31.339844 29.3125 -31.339844 29.734375 -31.679688 C 30.074219 -31.933594 30.328125 -32.355469 30.328125 -32.859375 L 30.328125 -40.632812 C 30.328125 -41.5625 29.820312 -42.070312 28.976562 -42.070312 C 28.722656 -42.070312 28.554688 -41.984375 28.46875 -41.984375 L 25.933594 -41.054688 C 25.765625 -40.972656 25.597656 -40.972656 25.425781 -40.972656 L 15.035156 -40.972656 C 14.699219 -40.972656 14.359375 -41.054688 14.109375 -41.308594 C 13.855469 -41.5625 13.769531 -41.898438 13.769531 -42.238281 L 13.769531 -45.027344 C 13.769531 -45.363281 13.855469 -45.703125 14.109375 -46.039062 C 14.359375 -46.292969 14.699219 -46.460938 15.207031 -46.460938 L 31.003906 -46.460938 C 31.171875 -46.460938 31.339844 -46.378906 31.507812 -46.378906 L 34.128906 -45.449219 C 34.550781 -45.277344 34.972656 -45.277344 35.394531 -45.617188 C 35.734375 -45.871094 35.988281 -46.207031 35.988281 -46.714844 L 35.988281 -53.472656 C 35.988281 -53.8125 35.816406 -54.148438 35.5625 -54.488281 C 35.226562 -54.742188 34.886719 -54.910156 34.550781 -54.910156 L 5.320312 -54.910156 L 5.320312 -54.824219 C 4.5625 -54.65625 4.222656 -54.148438 4.222656 -53.472656 C 4.222656 -53.21875 4.222656 -53.050781 4.308594 -52.964844 L 5.238281 -50.433594 C 5.238281 -50.261719 5.238281 -50.179688 5.238281 -50.179688 C 5.238281 -50.09375 5.320312 -50.007812 5.320312 -50.007812 L 5.320312 -16.558594 C 5.320312 -16.472656 5.238281 -16.386719 5.238281 -16.386719 C 5.238281 -16.304688 5.238281 -16.21875 5.238281 -16.136719 L 4.308594 -13.601562 C 4.140625 -13.09375 4.222656 -12.757812 4.394531 -12.417969 C 4.5625 -12.078125 4.816406 -11.828125 5.320312 -11.742188 L 6.589844 -11.65625 C 7.433594 -11.65625 8.53125 -11.65625 9.882812 -11.65625 Z M 5.660156 0 L 34.550781 0 C 34.886719 0 35.226562 -0.0859375 35.5625 -0.421875 C 35.816406 -0.675781 35.988281 -1.015625 35.988281 -1.4375 L 35.988281 -5.152344 C 35.988281 -5.492188 35.816406 -5.828125 35.5625 -6.167969 C 35.226562 -6.421875 34.886719 -6.589844 34.550781 -6.589844 L 5.660156 -6.589844 C 5.238281 -6.589844 4.898438 -6.421875 4.644531 -6.167969 C 4.308594 -5.828125 4.222656 -5.492188 4.222656 -5.152344 L 4.222656 -1.4375 C 4.222656 -1.015625 4.308594 -0.675781 4.644531 -0.421875 C 4.898438 -0.0859375 5.238281 0 5.660156 0 Z M 5.660156 0 "/></g></g></g><g fill="#c88769" fill-opacity="1"><g transform="translate(549.28195, 625.805409)"><g><path d="M 30.410156 9.546875 L 38.097656 9.546875 C 38.691406 9.546875 39.027344 9.292969 39.027344 8.699219 C 39.027344 8.277344 38.859375 7.941406 38.605469 7.601562 L 36.492188 5.070312 L 36.15625 4.5625 L 32.355469 -3.800781 C 31.257812 -6.167969 30.15625 -8.53125 28.976562 -11.066406 C 27.792969 -13.515625 26.777344 -15.628906 26.019531 -17.488281 C 25.597656 -18.246094 25.765625 -18.839844 26.527344 -19.261719 C 27.878906 -20.105469 29.058594 -21.289062 30.074219 -22.640625 C 31.085938 -23.992188 31.933594 -25.34375 32.609375 -26.863281 C 33.285156 -28.382812 33.875 -29.90625 34.210938 -31.425781 C 34.550781 -32.945312 34.71875 -34.296875 34.71875 -35.5625 C 34.71875 -37.929688 34.210938 -40.296875 33.367188 -42.660156 C 32.523438 -45.027344 31.171875 -47.054688 29.480469 -48.910156 C 27.792969 -50.6875 25.597656 -52.121094 22.976562 -53.21875 C 20.359375 -54.316406 17.316406 -54.910156 13.855469 -54.910156 L 5.660156 -54.910156 C 5.238281 -54.910156 4.898438 -54.742188 4.644531 -54.488281 C 4.308594 -54.148438 4.222656 -53.8125 4.222656 -53.390625 C 4.222656 -53.21875 4.222656 -53.050781 4.308594 -52.964844 L 5.238281 -50.433594 C 5.238281 -50.261719 5.320312 -50.179688 5.320312 -50.007812 L 5.320312 -4.898438 C 5.320312 -4.730469 5.238281 -4.5625 5.238281 -4.476562 L 4.308594 -1.941406 C 4.140625 -1.4375 4.140625 -1.015625 4.476562 -0.589844 C 4.816406 -0.167969 5.152344 0 5.660156 0 L 13.433594 0 C 13.855469 0 14.191406 -0.0859375 14.445312 -0.421875 C 14.699219 -0.675781 14.867188 -1.015625 14.867188 -1.4375 C 14.867188 -1.605469 14.785156 -1.773438 14.785156 -1.941406 L 13.855469 -4.476562 C 13.855469 -4.5625 13.769531 -4.644531 13.769531 -4.730469 C 13.769531 -4.730469 13.769531 -4.816406 13.769531 -4.898438 L 13.769531 -14.867188 C 13.769531 -15.207031 13.855469 -15.542969 14.191406 -15.882812 C 14.445312 -16.136719 14.785156 -16.304688 15.207031 -16.304688 C 15.460938 -16.304688 15.710938 -16.304688 16.050781 -16.304688 C 16.386719 -16.304688 16.640625 -16.386719 16.980469 -16.386719 C 17.65625 -16.472656 18.078125 -16.21875 18.414062 -15.628906 L 27.707031 4.5625 C 27.792969 4.816406 27.878906 4.984375 27.878906 5.070312 L 28.128906 7.601562 C 28.128906 8.109375 28.382812 8.53125 28.890625 8.953125 C 29.398438 9.375 29.90625 9.546875 30.410156 9.546875 Z M 15.289062 -24.75 C 14.785156 -24.75 14.445312 -24.835938 14.191406 -25.089844 C 13.855469 -25.34375 13.769531 -25.679688 13.769531 -26.1875 L 13.769531 -45.027344 C 13.769531 -45.363281 13.855469 -45.703125 14.191406 -46.039062 C 14.445312 -46.292969 14.785156 -46.460938 15.289062 -46.460938 C 17.148438 -46.292969 18.839844 -45.871094 20.273438 -45.109375 C 21.625 -44.265625 22.808594 -43.335938 23.652344 -42.238281 C 24.496094 -41.140625 25.175781 -40.042969 25.597656 -38.859375 C 26.019531 -37.675781 26.273438 -36.578125 26.273438 -35.734375 C 26.273438 -34.804688 26.019531 -33.707031 25.679688 -32.523438 C 25.257812 -31.257812 24.582031 -30.074219 23.738281 -28.976562 C 22.894531 -27.792969 21.710938 -26.863281 20.359375 -26.019531 C 19.007812 -25.175781 17.316406 -24.75 15.289062 -24.75 Z M 15.289062 -24.75 "/></g></g></g><g fill="#c88769" fill-opacity="1"><g transform="translate(590.839644, 625.805409)"><g><path d="M 8.699219 -58.371094 L 10.980469 -58.371094 C 11.402344 -58.371094 11.742188 -58.542969 12.078125 -58.878906 L 17.0625 -64.285156 C 17.316406 -64.539062 17.488281 -64.878906 17.488281 -65.214844 C 17.488281 -65.554688 17.316406 -65.890625 17.0625 -66.230469 C 16.726562 -66.566406 16.386719 -66.734375 15.964844 -66.734375 L 11.996094 -66.734375 C 11.488281 -66.734375 11.066406 -66.484375 10.726562 -65.976562 L 7.433594 -60.570312 C 7.265625 -60.398438 7.265625 -60.148438 7.265625 -59.894531 C 7.265625 -59.472656 7.347656 -59.132812 7.601562 -58.796875 C 7.855469 -58.457031 8.195312 -58.371094 8.699219 -58.371094 Z M 5.660156 0 L 13.433594 0 C 13.769531 0 14.109375 -0.0859375 14.445312 -0.421875 C 14.699219 -0.675781 14.867188 -1.015625 14.867188 -1.519531 C 14.867188 -1.691406 14.785156 -1.773438 14.785156 -1.941406 L 13.855469 -4.476562 C 13.769531 -4.5625 13.769531 -4.730469 13.769531 -4.898438 L 13.769531 -50.007812 C 13.769531 -50.179688 13.769531 -50.261719 13.855469 -50.433594 L 14.785156 -52.964844 C 14.953125 -53.390625 14.867188 -53.8125 14.53125 -54.234375 C 14.191406 -54.65625 13.855469 -54.910156 13.433594 -54.910156 L 5.660156 -54.910156 C 5.152344 -54.910156 4.816406 -54.742188 4.5625 -54.488281 C 4.308594 -54.148438 4.222656 -53.8125 4.222656 -53.472656 C 4.222656 -53.21875 4.222656 -53.050781 4.308594 -52.964844 L 5.238281 -50.433594 C 5.238281 -50.261719 5.238281 -50.179688 5.238281 -50.179688 C 5.238281 -50.09375 5.320312 -50.007812 5.320312 -50.007812 L 5.320312 -4.898438 C 5.320312 -4.816406 5.238281 -4.730469 5.238281 -4.730469 C 5.238281 -4.644531 5.238281 -4.5625 5.238281 -4.476562 L 4.308594 -1.941406 C 4.140625 -1.4375 4.140625 -1.015625 4.476562 -0.589844 C 4.730469 -0.167969 5.152344 0 5.660156 0 Z M 5.660156 0 "/></g></g></g><g fill="#c88769" fill-opacity="1"><g transform="translate(609.92916, 625.805409)"><g><path d="M 2.789062 -11.65625 L 10.558594 -11.65625 C 10.980469 -11.65625 11.402344 -11.828125 11.828125 -12.25 C 12.25 -12.585938 12.417969 -13.007812 12.417969 -13.515625 L 12.164062 -16.050781 C 12.164062 -16.21875 12.164062 -16.386719 12.25 -16.558594 C 12.25 -16.558594 12.332031 -16.980469 12.503906 -17.738281 C 12.671875 -18.5 13.007812 -19.515625 13.347656 -20.78125 C 13.433594 -21.117188 13.601562 -21.371094 13.9375 -21.542969 C 14.191406 -21.710938 14.53125 -21.878906 14.867188 -21.878906 L 15.035156 -21.878906 L 22.46875 -20.441406 C 22.976562 -20.273438 23.398438 -19.9375 23.570312 -19.429688 L 24.328125 -16.472656 C 24.328125 -16.304688 24.328125 -16.21875 24.328125 -16.21875 C 24.328125 -16.21875 24.328125 -16.136719 24.328125 -16.050781 L 24.160156 -13.515625 C 24.074219 -13.007812 24.246094 -12.585938 24.667969 -12.25 C 25.003906 -11.828125 25.511719 -11.65625 26.019531 -11.65625 L 33.707031 -11.65625 C 34.382812 -11.65625 34.804688 -11.996094 34.804688 -12.671875 C 34.804688 -12.925781 34.71875 -13.179688 34.550781 -13.515625 L 32.945312 -16.050781 C 32.777344 -16.21875 32.777344 -16.386719 32.777344 -16.558594 L 24.074219 -48.996094 C 23.992188 -49.164062 23.90625 -49.417969 23.90625 -49.585938 C 23.90625 -49.757812 23.90625 -49.925781 23.90625 -50.179688 C 23.90625 -50.6875 23.992188 -51.363281 24.328125 -52.039062 L 24.75 -52.964844 C 24.921875 -53.390625 24.835938 -53.8125 24.496094 -54.234375 C 24.160156 -54.65625 23.652344 -54.910156 23.0625 -54.910156 L 13.433594 -54.910156 C 12.925781 -54.910156 12.503906 -54.742188 12.164062 -54.488281 C 11.828125 -54.148438 11.65625 -53.8125 11.65625 -53.472656 C 11.65625 -53.21875 11.65625 -53.050781 11.742188 -52.964844 L 12.25 -52.039062 C 12.417969 -51.53125 12.585938 -50.9375 12.585938 -50.261719 C 12.585938 -49.671875 12.503906 -49.25 12.417969 -48.996094 C 10.726562 -42.746094 9.292969 -37.589844 8.277344 -33.707031 C 7.265625 -29.734375 6.421875 -26.609375 5.828125 -24.414062 C 5.152344 -22.132812 4.730469 -20.527344 4.476562 -19.597656 C 4.222656 -18.585938 4.054688 -17.992188 3.96875 -17.65625 C 3.886719 -17.316406 3.886719 -17.148438 3.886719 -17.148438 C 3.886719 -17.148438 3.800781 -16.894531 3.71875 -16.558594 C 3.71875 -16.386719 3.632812 -16.21875 3.546875 -16.050781 L 1.941406 -13.515625 C 1.773438 -13.179688 1.691406 -12.925781 1.691406 -12.671875 C 1.691406 -11.996094 2.027344 -11.65625 2.789062 -11.65625 Z M 18.921875 -29.734375 L 18.667969 -29.734375 L 17.402344 -29.988281 C 16.558594 -30.15625 16.21875 -30.582031 16.21875 -31.339844 C 16.21875 -31.507812 16.21875 -31.59375 16.304688 -31.761719 C 16.640625 -33.113281 16.980469 -34.296875 17.234375 -35.226562 C 17.402344 -36.15625 17.570312 -36.664062 17.570312 -36.746094 C 17.65625 -37 17.910156 -37.167969 18.246094 -37.167969 C 18.585938 -37.167969 18.839844 -37 18.921875 -36.746094 L 20.273438 -31.507812 C 20.441406 -31.003906 20.359375 -30.582031 20.019531 -30.242188 C 19.683594 -29.90625 19.34375 -29.734375 18.921875 -29.734375 Z M 3.125 0 L 33.367188 0 C 33.789062 0 34.128906 -0.0859375 34.382812 -0.421875 C 34.636719 -0.675781 34.804688 -1.015625 34.804688 -1.4375 L 34.804688 -5.152344 C 34.804688 -5.492188 34.636719 -5.828125 34.382812 -6.167969 C 34.128906 -6.421875 33.789062 -6.589844 33.367188 -6.589844 L 3.125 -6.589844 C 2.703125 -6.589844 2.367188 -6.421875 2.113281 -6.167969 C 1.773438 -5.828125 1.691406 -5.492188 1.691406 -5.152344 L 1.691406 -1.4375 C 1.691406 -1.015625 1.773438 -0.675781 2.113281 -0.421875 C 2.367188 -0.0859375 2.703125 0 3.125 0 Z M 3.125 0 "/></g></g></g></svg>